<svg width="148" height="45" viewBox="0 0 148 45" fill="none" xmlns="http://www.w3.org/2000/svg">
<path fill-rule="evenodd" clip-rule="evenodd" d="M22.2011 0.566391C21.9738 0.17622 21.6916 -0.0456418 21.3232 0.00791112C21.2449 0.0126833 21.1766 0.0159672 21.1151 0.0189232C20.9794 0.0254447 20.8769 0.0303706 20.7744 0.0461635C20.5492 0.0796143 20.3224 0.11008 20.0953 0.140591L20.0953 0.140596C19.5952 0.207776 19.0935 0.275173 18.603 0.375131C13.8682 1.33143 9.79967 3.47355 6.44453 6.87798C6.4134 6.90837 6.37794 6.93845 6.34177 6.96912L6.34177 6.96913L6.34177 6.96913L6.34176 6.96913L6.34176 6.96914L6.34176 6.96914L6.34172 6.96917L6.34172 6.96917L6.34172 6.96917C6.19577 7.09298 6.03835 7.22651 6.10745 7.42881C6.18361 7.63463 6.37359 7.62683 6.55635 7.61932C6.61814 7.61678 6.67911 7.61427 6.73458 7.62007C8.80258 7.86582 10.8724 8.10888 12.9428 8.35201L12.9443 8.35218C16.9322 8.82049 20.9223 9.28904 24.9056 9.77749C25.5931 9.86197 25.7877 9.47839 25.9814 9.09644C26.086 8.89038 26.1903 8.68479 26.3716 8.55342C26.7353 8.28539 26.5508 7.96935 26.3837 7.68323L26.3559 7.63537C26.0632 7.13827 25.7704 6.64151 25.4778 6.14487L25.4777 6.14467L25.4776 6.14462L25.4775 6.14442L25.4775 6.14429L25.4774 6.14417L25.4773 6.14404L25.4772 6.14392C24.3829 4.28675 23.2896 2.43133 22.2011 0.566391ZM79.9076 13.3733C79.9046 13.039 79.9016 12.7045 79.9016 12.3701C79.9036 12.1021 79.9065 11.8336 79.9094 11.5646V11.5643V11.5641V11.5639V11.5637V11.5634V11.5632V11.563V11.5627V11.5625V11.5623C79.9183 10.7491 79.9271 9.93054 79.9095 9.10335C79.8232 5.98963 77.5656 3.87046 74.3672 3.88576C71.1845 3.90106 68.9504 6.06613 68.9112 9.1875C68.8798 11.2149 68.8798 13.2422 68.9112 15.2696C68.9347 16.5702 69.2561 17.8172 70.0871 18.8806C71.357 20.5101 73.9909 21.191 76.2643 20.4872C78.4044 19.8216 79.8076 17.9702 79.8938 15.6215C79.9209 14.8749 79.9143 14.1246 79.9076 13.3733ZM76.1762 11.3322C76.1732 11.6752 76.1702 12.0185 76.1702 12.3624C76.1702 12.7112 76.172 13.06 76.1737 13.4091V13.41V13.4108V13.4117V13.4125V13.4134V13.4142V13.4151V13.4159V13.4168V13.4176V13.4179V13.4182V13.4185V13.4188V13.4191V13.4194V13.4198V13.4201V13.4204V13.4207C76.1772 14.1243 76.1807 14.8291 76.1702 15.5373C76.1467 16.5855 75.598 17.1669 74.6102 17.2663C73.6147 17.3658 72.9405 16.9068 72.6583 15.9199C72.5799 15.6521 72.5407 15.3614 72.5407 15.0783C72.5329 13.2269 72.5329 11.3679 72.5407 9.50882C72.5407 9.24871 72.5642 8.98859 72.6269 8.74378C72.8621 7.78748 73.6225 7.2902 74.6651 7.38965C75.5039 7.46616 76.131 8.10879 76.1624 9.01919C76.1895 9.79218 76.1828 10.5615 76.1762 11.3322ZM142.993 14.2432L142.993 14.2433L142.993 14.2437L142.993 14.2439L142.993 14.2442C142.166 15.754 141.339 17.2626 140.639 18.827C139.996 20.25 139.157 20.8161 137.574 20.6325L137.512 20.6256L137.448 20.6186C137.389 20.6122 137.333 20.6063 137.279 20.6007C136.286 20.4966 136.273 20.4952 136.273 19.3167V5.25519C136.273 4.04647 136.281 4.04642 137.464 4.03877L137.464 4.03877C139.894 4.02347 139.894 4.02347 139.894 6.3798V13.1351C140.242 12.8398 140.383 12.529 140.518 12.2324C140.548 12.1678 140.577 12.104 140.608 12.0411C140.969 11.3205 141.332 10.5999 141.695 9.87893L141.701 9.86813C142.55 8.18147 143.401 6.49256 144.229 4.79616C144.512 4.23003 144.88 4.00817 145.531 4.02347C145.943 4.03343 146.287 4.03235 146.574 4.03145C147.296 4.02918 147.655 4.02805 147.83 4.20697C148.004 4.38398 147.997 4.73723 147.985 5.43997C147.98 5.6963 147.974 5.99912 147.976 6.35685C147.987 8.29822 147.985 10.2411 147.983 12.1842C147.981 14.6133 147.978 17.0426 148 19.4697C148.008 20.3112 147.765 20.7014 146.855 20.6096C146.307 20.556 145.742 20.5713 145.186 20.6019C144.496 20.6402 144.253 20.3418 144.261 19.6915C144.278 18.1625 144.274 16.6335 144.271 15.1045V15.101C144.27 14.4891 144.269 13.8771 144.269 13.2652V12.3318C144.218 12.322 144.171 12.3091 144.128 12.297C144.103 12.2902 144.079 12.2838 144.057 12.2783C143.709 12.9366 143.351 13.59 142.993 14.2432ZM3.52054 10.5119C1.20017 14.1535 0.0321379 18.1088 0.00862056 22.7526C-0.0243753 23.2249 0.042934 23.8666 0.115825 24.5615C0.146837 24.8572 0.178861 25.1625 0.204598 25.4685C0.243794 25.9964 0.463289 26.2106 0.996349 25.8816C1.289 25.698 1.5956 25.528 1.90219 25.358L1.90221 25.358L1.90223 25.358L1.90226 25.358L1.90228 25.3579L1.9023 25.3579C2.05557 25.2729 2.20883 25.188 2.36035 25.1013C9.90158 20.7864 17.4506 16.464 24.9919 12.1415C25.0277 12.1205 25.0642 12.0999 25.1007 12.0794C25.4245 11.8971 25.7512 11.713 25.6033 11.2387C25.4742 10.8208 25.1328 10.817 24.8041 10.8134C24.7538 10.8129 24.7037 10.8123 24.6548 10.8103C24.149 10.7875 23.644 10.7664 23.1393 10.7453C22.1188 10.7027 21.0995 10.66 20.0767 10.6037C15.0362 10.336 9.99565 10.0682 4.9551 9.77749C4.28878 9.73924 3.8733 9.95345 3.52054 10.5119ZM1.53677 28.4514C1.2855 28.5978 1.01453 28.7557 1.07474 29.1866C1.08123 29.2088 1.09042 29.2415 1.10118 29.2797L1.10119 29.2798L1.10124 29.28C1.11644 29.3341 1.13479 29.3993 1.15313 29.462C3.00316 34.802 6.42101 38.9026 11.344 41.8327C11.9241 42.177 12.1044 41.8786 12.3239 41.4426C13.1973 39.7213 14.0788 38.004 14.9597 36.2877L14.96 36.287L14.9608 36.2854C15.3129 35.5996 15.6648 34.9139 16.0161 34.2282L16.0171 34.2263C19.4816 27.4487 22.9462 20.671 26.3951 13.8858C26.4249 13.8276 26.4622 13.7671 26.5005 13.705L26.5005 13.7049C26.6737 13.4241 26.8679 13.1091 26.4891 12.8147C26.1648 12.5639 25.9169 12.7653 25.6858 12.953C25.6208 13.0058 25.5572 13.0575 25.4936 13.0978C21.0723 15.9208 16.6589 18.7438 12.2455 21.5744C8.71004 23.839 5.18243 26.1035 1.66267 28.3756C1.62249 28.4014 1.57995 28.4262 1.53683 28.4513L1.53677 28.4514ZM15.7966 43.8371C17.7329 44.4492 19.7318 44.7628 21.7386 45H24.5607C24.6244 44.9876 24.688 44.9727 24.7519 44.9578C24.8848 44.9268 25.0189 44.8956 25.1565 44.8852C27.1947 44.7475 29.1544 44.2809 31.075 43.6229C31.4827 43.4776 31.8276 43.3475 31.7649 42.7967C31.5525 40.9972 31.3538 39.1943 31.1553 37.3926L31.1553 37.3925L31.1553 37.3923L31.1552 37.3922L31.1552 37.3921L31.1552 37.392L31.1552 37.3919L31.1552 37.3918L31.1552 37.3917L31.1552 37.3915L31.1552 37.3914L31.1552 37.3913L31.1551 37.3912L31.1551 37.3911L31.1551 37.391C31.0532 36.4663 30.9514 35.5419 30.8477 34.6184C30.6282 32.6867 30.4107 30.7568 30.1931 28.827C29.9756 26.8972 29.7581 24.9674 29.5386 23.0357C29.4523 22.2777 29.3665 21.5193 29.2807 20.7606L29.2807 20.76L29.2806 20.7595L29.2806 20.7589L29.2805 20.7584L29.2804 20.7578L29.2804 20.7573L29.2803 20.7567L29.2802 20.7562L29.2802 20.7556L29.2801 20.7551L29.2801 20.7545L29.28 20.754L29.2799 20.7534L29.2798 20.7521L29.2796 20.7505L29.2796 20.7503L29.2796 20.7501L29.2795 20.7499L29.2795 20.7497L29.2795 20.7495L29.2795 20.7493L29.2794 20.7491L29.2794 20.7489L29.2794 20.7487L29.2794 20.7483C29.0383 18.6163 28.797 16.4823 28.543 14.3524C28.5369 14.3036 28.5333 14.2519 28.5296 14.1991C28.5095 13.9125 28.4872 13.5956 28.057 13.5568C27.6861 13.5245 27.5838 13.7924 27.4901 14.0378C27.4729 14.0829 27.4559 14.1273 27.4377 14.1688C23.2359 23.4258 19.0498 32.6828 14.8637 41.9475C14.2337 43.3423 14.2513 43.3478 15.7066 43.8086L15.7966 43.8371ZM29.5621 13.9776C29.4994 13.5568 29.6953 13.4038 29.9462 13.2737C30.3146 13.0825 30.5498 13.2737 30.785 13.5185C31.2945 14.0502 31.806 14.582 32.3175 15.1137C32.829 15.6454 33.3405 16.1771 33.8501 16.7088C35.3207 18.251 36.7891 19.7932 38.2566 21.3344C39.6209 22.7672 40.9843 24.1991 42.3477 25.6292C42.5349 25.8255 42.7217 26.0222 42.9084 26.2189L42.9087 26.2192L42.9088 26.2193L42.909 26.2195L42.9091 26.2196L42.9092 26.2198L42.9094 26.2199L42.9095 26.22L42.9097 26.2202L42.9098 26.2203L42.9099 26.2205L42.9101 26.2206L42.9102 26.2208L42.9103 26.2209C43.5598 26.9049 44.2087 27.5883 44.8719 28.2532C45.2246 28.6052 45.2873 28.9418 45.1306 29.4085C43.3354 34.7331 39.9411 38.8185 35.0573 41.7486C34.3518 42.1693 34.2028 42.0852 34.0696 41.2513C33.8553 39.9454 33.6418 38.6395 33.4284 37.3337C33.0016 34.7225 32.5749 32.1114 32.1411 29.5003C31.5957 26.182 31.0436 22.8669 30.4914 19.5509L30.4913 19.5507L30.4913 19.5504L30.4912 19.5501L30.4912 19.5499L30.4907 19.5466L30.4903 19.5442C30.1936 17.7631 29.897 15.9817 29.6013 14.1994C29.5856 14.0923 29.5621 13.9776 29.5621 13.9776ZM46.2188 24.0467L46.2188 24.0467V24.0468V24.0468L46.2188 24.0469C46.1725 24.4372 46.1238 24.8489 46.1104 25.2619C46.1096 25.283 46.1091 25.3048 46.1086 25.3269C46.1046 25.5053 46.1002 25.7073 45.8909 25.7822C45.6988 25.8572 45.5747 25.7279 45.4588 25.6072C45.4328 25.5801 45.4072 25.5535 45.3814 25.5297C45.2383 25.4008 45.0952 25.2722 44.9522 25.1437L44.9433 25.1357L44.9395 25.1322L44.9391 25.1319C44.3737 24.6238 43.8104 24.1176 43.257 23.6018C40.7235 21.2607 38.1934 18.9163 35.6645 16.573L35.6631 16.5717C34.3661 15.3699 33.0694 14.1684 31.7727 12.9677C31.7291 12.9273 31.6827 12.8877 31.6362 12.8479L31.6362 12.8479C31.3565 12.6088 31.0694 12.3634 31.318 11.9043C31.3927 11.7665 31.4424 11.616 31.4917 11.4669C31.6338 11.0367 31.772 10.6184 32.4939 10.5502C34.8191 10.3215 37.1397 10.0344 39.4592 9.74742C40.166 9.65998 40.8727 9.57254 41.5794 9.48677C42.0322 9.42976 42.2196 9.71134 42.4143 10.0037L42.441 10.0437L42.4574 10.0682C44.9738 13.794 46.2437 17.8946 46.2986 22.6302C46.3391 23.0303 46.2813 23.519 46.2188 24.0467ZM110.89 12.3165C110.89 11.6527 110.891 10.9894 110.893 10.3264C110.898 8.55962 110.902 6.79467 110.874 5.02568C110.866 4.29124 111.109 4.01582 111.885 4.02347C114.558 4.05407 117.231 4.04642 119.905 4.02347C120.563 4.01582 120.869 4.21473 120.853 4.90327C120.845 5.29997 120.846 5.63298 120.846 5.91244V5.91265V5.91286V5.91307V5.91327V5.91347V5.91367C120.849 6.65264 120.85 7.01671 120.668 7.19317C120.492 7.36454 120.144 7.35899 119.458 7.34807C119.176 7.34359 118.838 7.33821 118.431 7.34375C117.404 7.35905 116.377 7.35905 115.35 7.34375C114.754 7.3361 114.496 7.58856 114.511 8.17C114.519 8.60217 114.516 8.95741 114.513 9.24925V9.24967V9.25006V9.25043C114.506 9.94201 114.502 10.2772 114.668 10.4363C114.824 10.586 115.129 10.5798 115.722 10.5679C116.021 10.5619 116.393 10.5544 116.855 10.5646C117.647 10.5799 118.439 10.5799 119.238 10.5646C119.74 10.5493 119.991 10.6946 119.975 11.2455C119.96 11.7663 119.963 12.185 119.966 12.5215C119.973 13.2065 119.976 13.5505 119.805 13.7209C119.633 13.8928 119.285 13.8878 118.584 13.8778C118.266 13.8733 117.876 13.8677 117.396 13.8772C116.659 13.8925 115.93 13.8925 115.193 13.8849C114.715 13.8772 114.496 14.0838 114.511 14.5581C114.527 15.1548 114.527 15.7592 114.511 16.3559C114.503 16.9986 114.778 17.2816 115.468 17.2663C116.166 17.2518 116.866 17.2545 117.565 17.2573C118.335 17.2604 119.105 17.2634 119.873 17.2434C120.587 17.2281 120.869 17.4653 120.853 18.1844C120.843 18.5987 120.844 18.9427 120.846 19.2282V19.2284V19.2286V19.2288V19.229V19.2292V19.2294C120.849 19.9246 120.85 20.2725 120.677 20.4439C120.504 20.6155 120.155 20.61 119.456 20.5988C119.168 20.5942 118.82 20.5887 118.4 20.5943C117.415 20.6083 116.432 20.6046 115.449 20.601C114.288 20.5967 113.127 20.5924 111.964 20.6172C111.101 20.6325 110.85 20.3265 110.866 19.5156C110.901 17.7197 110.897 15.9195 110.893 14.1183C110.891 13.5178 110.89 12.9172 110.89 12.3165ZM55.5177 10.2997C55.5159 10.9465 55.5142 11.5933 55.5142 12.24C55.5142 13.0688 55.5159 13.8976 55.5176 14.7264C55.5211 16.384 55.5246 18.0416 55.5142 19.6992C55.5063 20.3571 55.765 20.6325 56.447 20.6019C57.0898 20.5713 57.7405 20.579 58.3833 20.6019C58.932 20.6172 59.175 20.426 59.1515 19.8522C59.123 19.1064 59.1277 18.3565 59.1323 17.6084V17.6077V17.6069V17.6061V17.6053V17.6046V17.6038C59.1341 17.3252 59.1358 17.0468 59.1358 16.7691C59.128 14.6269 59.128 14.6269 61.3386 14.581C64.4194 14.5122 66.4968 12.4007 66.5046 9.32521C66.5124 6.09674 64.5527 4.07702 61.3465 4.03877C60.6979 4.02942 60.0507 4.03404 59.4043 4.03866H59.4043H59.4042H59.4042H59.4042H59.4041H59.4041C58.4644 4.04538 57.5262 4.05208 56.5881 4.01582C55.7023 3.98522 55.4828 4.33714 55.4985 5.12513C55.527 6.85 55.5223 8.57487 55.5177 10.2997ZM61.0486 11.2531C59.1437 11.3449 59.128 11.3296 59.128 9.13395C59.128 7.26725 59.128 7.26725 61.0799 7.35905C62.2793 7.4126 62.8751 8.02464 62.8908 9.21045C62.9064 10.4575 62.2323 11.1996 61.0486 11.2531ZM96.7949 11.9034C96.8204 11.5012 96.8128 11.0699 96.8049 10.6196C96.7884 9.68243 96.7704 8.66261 97.0458 7.64977C97.6729 5.38524 99.4837 3.98522 102.008 3.89341C104.595 3.80161 106.688 5.11748 107.456 7.2902C107.644 7.81808 107.597 8.17765 106.97 8.32301C106.602 8.40716 106.225 8.50662 105.873 8.63667C104.987 8.98094 104.242 9.2487 103.701 8.03229C103.38 7.2902 102.463 7.20604 101.671 7.43556C100.871 7.67272 100.511 8.2771 100.511 9.07275C100.503 11.1843 100.495 13.3034 100.519 15.4149C100.526 16.2412 100.809 16.945 101.726 17.1975C102.666 17.4576 103.537 17.098 103.991 16.1723C104.25 15.6445 104.548 15.6062 105.026 15.7669C105.637 15.9658 106.257 16.1647 106.884 16.3024C107.558 16.4477 107.621 16.7997 107.44 17.3734C106.868 19.2019 104.901 20.5943 102.659 20.7167C99.1545 20.9079 96.8811 18.7964 96.7792 15.239C96.775 14.6937 96.78 14.1394 96.7855 13.5379V13.5374V13.5368V13.5362V13.5355V13.5348C96.7901 13.0316 96.7949 12.4952 96.7949 11.9034ZM83.182 11.1897L83.182 11.1925C83.1841 11.526 83.1862 11.8597 83.1862 12.1941C83.1892 12.633 83.1855 13.0719 83.1818 13.5108C83.1757 14.2424 83.1696 14.974 83.1941 15.7057C83.3038 18.6358 85.0519 20.4336 88.0386 20.7243C90.6255 20.9768 92.9302 19.6533 93.7298 17.4653C93.9493 16.8685 93.9728 16.4401 93.1576 16.2871C92.711 16.2078 92.2775 16.0741 91.8423 15.9398L91.8421 15.9397C91.6052 15.8666 91.3677 15.7933 91.1272 15.7286C90.7902 15.6368 90.555 15.6751 90.3669 16.0652C89.873 17.0827 89.0656 17.4576 88.1092 17.2281C87.2469 17.0215 86.8157 16.4095 86.7922 15.2466C86.7754 14.3671 86.7786 13.4915 86.7818 12.6142C86.7831 12.2629 86.7844 11.9113 86.7844 11.5591C86.7844 11.3755 86.7833 11.1919 86.7822 11.0084C86.7783 10.3351 86.7743 9.66184 86.8236 8.98859C86.8784 8.2159 87.2704 7.60387 88.0935 7.42026C88.8931 7.2443 89.7632 7.3667 90.0925 8.11645C90.555 9.17985 91.1978 9.03449 92.0209 8.71318C92.405 8.56782 92.8048 8.44541 93.2046 8.37656C93.9258 8.2465 94.012 7.89458 93.7847 7.2749C92.8754 4.81912 90.4296 3.56445 87.3488 4.02347C84.9735 4.37539 83.2568 6.3492 83.1941 8.85088C83.1721 9.63229 83.177 10.4099 83.182 11.1891V11.1893V11.1894V11.1896V11.1897ZM129.966 15.5908V15.5916V15.5931C129.961 16.934 129.956 18.2764 129.978 19.615C129.994 20.3571 129.719 20.6631 128.951 20.6096C128.426 20.5713 127.893 20.5637 127.367 20.6096C126.529 20.6861 126.231 20.3571 126.239 19.5385C126.262 17.0081 126.259 14.4778 126.256 11.9474C126.255 11.1039 126.254 10.2605 126.254 9.41701C126.254 9.2642 126.252 9.11139 126.249 8.95886V8.95838V8.9579V8.95742V8.95724V8.95706V8.95688C126.244 8.6519 126.239 8.34805 126.254 8.04759C126.286 7.46616 126.05 7.20604 125.431 7.22899C125.058 7.2452 124.684 7.2421 124.311 7.239C123.979 7.23625 123.647 7.23349 123.315 7.2443C122.86 7.2596 122.656 7.08364 122.688 6.63991C122.693 6.60393 122.691 6.56451 122.689 6.52626L122.689 6.5259C122.688 6.50734 122.688 6.48906 122.688 6.4716C122.695 6.0476 122.692 5.69644 122.689 5.40579C122.683 4.69595 122.68 4.34702 122.852 4.17926C123.019 4.01707 123.351 4.02421 124.002 4.03824C124.298 4.0446 124.66 4.05238 125.102 4.04642C126.337 4.03112 127.571 4.03495 128.806 4.03877C130.041 4.0426 131.275 4.04642 132.51 4.03112C133.27 4.02347 133.553 4.26828 133.537 5.01803C133.53 5.3264 133.529 5.59233 133.528 5.8216V5.82183V5.82207C133.526 6.56214 133.524 6.92008 133.345 7.09023C133.177 7.2496 132.852 7.24421 132.224 7.23377C131.974 7.2296 131.675 7.22463 131.318 7.22899L131.295 7.22926C130.624 7.2368 130.291 7.24055 130.126 7.40902C129.962 7.57541 129.962 7.90246 129.962 8.55252C129.97 10.3198 129.97 12.0947 129.97 13.8696C129.97 14.4422 129.968 15.0155 129.966 15.5891V15.59V15.5908ZM39.8313 6.85503C35.849 2.86152 31.0045 0.604644 25.329 0.0308627C24.8821 -0.00738935 24.5215 0.0232123 24.7802 0.612294C24.9938 1.10897 25.2073 1.60526 25.4207 2.10133L25.4231 2.10674L25.4242 2.10947C26.1499 3.79601 26.8745 5.48008 27.5945 7.1687C27.7356 7.50532 27.9472 7.65833 28.3313 7.63538C29.5542 7.55887 30.4871 8.08675 31.1691 9.04305C31.4043 9.37202 31.6394 9.47913 32.0549 9.37967C34.5634 8.78294 37.0719 8.20916 39.5883 7.63538C40.1606 7.50532 40.2781 7.29876 39.8313 6.85503ZM68.1865 37.9199C68.5172 37.8026 68.7732 37.6266 68.9545 37.3919L69.0185 37.4239V37.9999H70.3306V32.3679C70.3306 31.9092 70.2559 31.5306 70.1065 31.2319C69.9679 30.9226 69.7705 30.6772 69.5145 30.4959C69.2692 30.3146 68.9812 30.1866 68.6505 30.1119C68.3199 30.0266 67.9679 29.9839 67.5945 29.9839C67.0505 29.9839 66.5546 30.1012 66.1065 30.3359C65.6692 30.5706 65.3439 30.9066 65.1305 31.3439C65.3012 31.4506 65.4665 31.5572 65.6265 31.6639L66.1385 31.9519C66.2559 31.6746 66.4479 31.4826 66.7145 31.3759C66.9919 31.2586 67.2852 31.1999 67.5945 31.1999C68.0639 31.1999 68.4159 31.3012 68.6505 31.5039C68.8959 31.7066 69.0185 31.9892 69.0185 32.3519V33.3279H67.5625C66.6025 33.3279 65.9039 33.5626 65.4665 34.0319C65.0292 34.4906 64.8105 35.0719 64.8105 35.7759C64.8105 36.0852 64.8532 36.3839 64.9385 36.6719C65.0345 36.9492 65.1732 37.1946 65.3545 37.4079C65.5465 37.6212 65.7865 37.7919 66.0745 37.9199C66.3625 38.0372 66.6985 38.0959 67.0826 38.0959C67.4986 38.0959 67.8665 38.0372 68.1865 37.9199ZM67.4665 34.4319H69.0185V35.5199C69.0185 36.0212 68.8692 36.3732 68.5705 36.5759C68.2825 36.7786 67.9146 36.8799 67.4665 36.8799C66.9865 36.8799 66.6292 36.7732 66.3945 36.5599C66.1599 36.3359 66.0425 36.0479 66.0425 35.6959C66.0425 35.2479 66.1759 34.9279 66.4426 34.7359C66.7092 34.5332 67.0505 34.4319 67.4665 34.4319ZM73.079 30.8319C73.3136 30.5332 73.5803 30.3199 73.879 30.1919C74.1776 30.0532 74.5136 29.9839 74.887 29.9839C75.4096 29.9839 75.8256 30.0959 76.135 30.3199C76.4443 30.5332 76.6843 30.8266 76.855 31.1999C77.0256 31.5626 77.1376 31.9892 77.191 32.4799C77.2443 32.9706 77.271 33.4826 77.271 34.0159C77.271 34.5172 77.239 35.0132 77.175 35.5039C77.1216 35.9839 77.0043 36.4159 76.823 36.7999C76.6416 37.1839 76.3856 37.4932 76.055 37.7279C75.7243 37.9626 75.2923 38.0799 74.759 38.0799C74.0976 38.0799 73.5376 37.8186 73.079 37.2959H73.047V41.1999H71.751V30.0799H73.047V30.8159C73.0576 30.8159 73.063 30.8212 73.063 30.8319H73.079ZM74.471 36.7999C74.8016 36.7999 75.063 36.7252 75.255 36.5759C75.447 36.4266 75.5963 36.2292 75.703 35.9839C75.8096 35.7279 75.879 35.4346 75.911 35.1039C75.943 34.7732 75.959 34.4212 75.959 34.0479C75.959 33.6639 75.943 33.3012 75.911 32.9599C75.879 32.6186 75.8096 32.3199 75.703 32.0639C75.607 31.8079 75.463 31.6052 75.271 31.4559C75.079 31.2959 74.8176 31.2159 74.487 31.2159C74.103 31.2159 73.8096 31.3172 73.607 31.5199C73.4043 31.7119 73.2603 31.9572 73.175 32.2559C73.0896 32.5546 73.0416 32.8852 73.031 33.2479V34.2399C73.031 34.5279 73.0416 34.8212 73.063 35.1199C73.095 35.4186 73.159 35.6959 73.255 35.9519C73.351 36.1972 73.495 36.3999 73.687 36.5599C73.879 36.7199 74.1403 36.7999 74.471 36.7999ZM90.5773 36.5759C90.364 37.0452 90.044 37.4186 89.6173 37.6959C89.2013 37.9626 88.7266 38.0959 88.1933 38.0959C87.66 38.0959 87.2066 38.0212 86.8333 37.8719C86.46 37.7226 86.1506 37.4879 85.9053 37.1679C85.6706 36.8372 85.4946 36.4159 85.3773 35.9039C85.2706 35.3919 85.2173 34.7732 85.2173 34.0479C85.2173 33.5466 85.2546 33.0559 85.3293 32.5759C85.4146 32.0852 85.5586 31.6479 85.7613 31.2639C85.9746 30.8799 86.2626 30.5706 86.6253 30.3359C86.988 30.1012 87.452 29.9839 88.0173 29.9839C88.9133 29.9839 89.5959 30.2719 90.0653 30.8479C90.5453 31.4132 90.7853 32.1972 90.7853 33.1999V34.4319H86.5133C86.5133 34.7839 86.5346 35.1146 86.5773 35.4239C86.6199 35.7226 86.7 35.9839 86.8173 36.2079C86.9346 36.4319 87.1 36.6079 87.3133 36.7359C87.5266 36.8639 87.804 36.9279 88.1453 36.9279C88.4333 36.9279 88.6946 36.8372 88.9293 36.6559C89.1746 36.4746 89.3719 36.2612 89.5213 36.0159L90.5773 36.5759ZM89.5053 33.3919C89.5053 32.6666 89.3773 32.1226 89.1213 31.7599C88.876 31.3866 88.5133 31.1999 88.0333 31.1999C87.4786 31.1999 87.0946 31.3972 86.8813 31.7919C86.6786 32.1866 86.5666 32.7199 86.5453 33.3919H89.5053ZM94.8303 31.2159V37.9999H93.5503V31.2159H91.4863V30.0959H96.9263V31.2159H94.8303ZM78.6411 30.0798V37.9998H79.9371V34.5758H80.9931C81.3451 34.5758 81.6438 34.6558 81.8891 34.8158C82.1451 34.9652 82.3478 35.2958 82.4971 35.8078L83.0891 37.9998H84.3851L83.6491 35.4238C83.5318 35.0292 83.3878 34.6932 83.2171 34.4158C83.0571 34.1385 82.7958 33.9572 82.4331 33.8718C82.7211 33.7865 82.9504 33.6158 83.1211 33.3598C83.3024 33.0932 83.4518 32.7678 83.5691 32.3838L84.2411 30.0798H82.9771L82.3211 32.3678C82.2464 32.6238 82.1558 32.8318 82.0491 32.9918C81.9424 33.1412 81.8198 33.2585 81.6811 33.3438C81.5531 33.4185 81.4144 33.4665 81.2651 33.4878C81.1158 33.5092 80.9664 33.5198 80.8171 33.5198H79.9371V30.0798H78.6411ZM62.1431 37.9998V32.7998H62.1271L61.8071 33.4718C61.7111 33.6958 61.6045 33.9145 61.4871 34.1278C61.2738 34.5332 61.0658 34.9332 60.8631 35.3278C60.6605 35.7118 60.4578 36.1065 60.2551 36.5118H59.4231L58.3671 34.4798L57.5511 32.8638H57.5351V37.9998H56.2231V30.0798H57.4871L58.7831 32.5918C58.9645 32.9545 59.1405 33.3118 59.3111 33.6638C59.4818 34.0052 59.6631 34.3518 59.8551 34.7038H59.8711L60.9111 32.5918L62.2071 30.0798H63.4551V37.9998H62.1431Z" fill="white"/>
</svg>
