<svg width="105" height="27" viewBox="0 0 105 27" fill="none" xmlns="http://www.w3.org/2000/svg">
<path d="M12.6356 27C11.4691 26.8577 10.3072 26.6695 9.18176 26.3023C8.28414 26.0085 8.26591 26.0223 8.63954 25.1685C11.0727 19.6097 13.5059 14.0555 15.9481 8.5013C16.0165 8.34064 16.0529 8.11113 16.3081 8.13408C16.6043 8.16162 16.5678 8.42326 16.5906 8.61146C16.7911 10.3466 16.9779 12.0863 17.1693 13.8214C17.4244 16.1395 17.675 18.453 17.9302 20.771C18.1079 22.4052 18.2765 24.0439 18.4633 25.678C18.4998 26.0085 18.2993 26.0865 18.0623 26.1738C16.946 26.5685 15.8069 26.8485 14.6222 26.9311C14.5037 26.9403 14.3898 26.977 14.2759 27C13.7291 27 13.1824 27 12.6356 27Z" fill="white"/>
<path d="M35.1902 27C35.181 26.899 35.1628 26.798 35.1628 26.6925C35.1491 25.7285 35.2904 25.7744 34.1968 25.7744C33.5316 25.7744 32.8664 25.7652 32.2011 25.779C31.8594 25.7836 31.6999 25.6505 31.7045 25.297C31.709 23.5481 31.7136 21.7992 31.7045 20.0504C31.6999 19.6051 31.9596 19.5684 32.3059 19.5638C32.6659 19.5592 32.8436 19.674 32.8436 20.0595C32.8345 21.4137 32.8572 22.7678 32.8345 24.1219C32.8253 24.5993 33.003 24.7462 33.4633 24.7416C34.4611 24.7324 34.4611 24.7508 34.4611 23.7363C34.4611 22.5383 34.4748 21.3356 34.4566 20.1376C34.452 19.7199 34.5933 19.5592 35.017 19.5592C35.4408 19.5592 35.5319 19.7566 35.5273 20.1284C35.5137 21.4642 35.5228 22.8045 35.5228 24.1403C35.5228 24.4203 35.5 24.7003 35.8827 24.7645C36.0513 24.7921 36.0604 24.9482 36.0559 25.0905C36.0422 25.7239 36.0331 26.3574 36.0194 26.9908C35.7369 27 35.4635 27 35.1902 27Z" fill="white"/>
<path d="M104.995 25.7606C104.025 25.7652 103.05 25.756 102.079 25.7744C101.719 25.779 101.564 25.6826 101.569 25.2832C101.587 23.5206 101.583 21.7533 101.569 19.9861C101.564 19.6694 101.669 19.5592 101.974 19.5638C102.981 19.5776 103.988 19.573 104.995 19.5776C104.995 19.8851 104.995 20.1972 104.995 20.5048C104.567 20.6746 104.116 20.592 103.679 20.5966C102.59 20.6104 102.562 20.6425 102.649 21.7304C102.672 22.0104 102.781 22.1343 103.059 22.1297C103.433 22.1252 103.811 22.1435 104.184 22.1297C104.553 22.116 104.713 22.2583 104.708 22.6393C104.704 23.0019 104.544 23.135 104.207 23.1121C104.052 23.1029 103.902 23.1121 103.747 23.1121C102.562 23.1396 102.663 22.8734 102.653 24.2596C102.649 24.6314 102.822 24.7324 103.155 24.7278C103.77 24.7186 104.385 24.7278 105 24.7278C104.995 25.0767 104.995 25.421 104.995 25.7606Z" fill="white"/>
<path d="M0.624692 17.512C0.583684 17.209 0.806951 17.131 0.966428 17.0254C3.01229 15.6621 5.0627 14.3034 7.11768 12.9447C9.68298 11.2463 12.2483 9.55246 14.8181 7.85866C14.9867 7.7485 15.1553 7.49603 15.3968 7.68882C15.6656 7.90457 15.4378 8.13867 15.3421 8.33146C13.3373 12.403 11.3233 16.47 9.30934 20.5369C8.59398 21.9783 7.87405 23.4196 7.16324 24.8655C7.03566 25.1272 6.93086 25.3062 6.59368 25.0996C3.73221 23.3416 1.74559 20.8812 0.670257 17.6772C0.652031 17.6129 0.633805 17.5441 0.624692 17.512Z" fill="white"/>
<path d="M17.1829 8.38654C17.1465 8.13408 17.2604 8.04227 17.4062 7.96424C17.6204 7.84948 17.7571 7.96424 17.8938 8.11113C18.4861 8.74917 19.083 9.38722 19.6753 10.0253C21.3248 11.8109 22.9697 13.5965 24.6146 15.3775C25.1021 15.9054 25.5851 16.4378 26.0818 16.9519C26.2868 17.1631 26.3232 17.3651 26.2321 17.6451C25.1887 20.8399 23.2157 23.2911 20.377 25.0491C19.967 25.3016 19.8804 25.2511 19.8029 24.7508C19.4293 22.4006 19.0602 20.0504 18.682 17.7002C18.1945 14.6385 17.6978 11.5814 17.2057 8.51966C17.1966 8.4554 17.1829 8.38654 17.1829 8.38654Z" fill="white"/>
<path d="M0.0050107 13.6516C0.0186801 10.8653 0.697596 8.49212 2.04631 6.30716C2.25136 5.97207 2.49285 5.84354 2.88015 5.86649C5.80997 6.04092 8.73979 6.20158 11.6696 6.36224C12.5581 6.41273 13.4421 6.44487 14.3306 6.48618C14.5447 6.49536 14.7953 6.45405 14.8819 6.74323C14.9776 7.05996 14.7316 7.16094 14.5265 7.28488C10.1432 9.87837 5.75529 12.4719 1.37195 15.0608C1.10768 15.2168 0.83429 15.3637 0.579127 15.529C0.269287 15.7264 0.141705 15.5978 0.118923 15.2811C0.0688014 14.666 -0.0223282 14.0555 0.0050107 13.6516Z" fill="white"/>
<path d="M83.1517 9.7728C82.4819 11.081 81.7483 12.3571 81.165 13.702C80.7914 14.5558 80.3039 14.8955 79.3835 14.7853C78.6362 14.6981 78.6271 14.767 78.6271 13.9958C78.6271 11.182 78.6271 8.37277 78.6271 5.55895C78.6271 4.83369 78.6316 4.83369 79.3197 4.8291C80.7322 4.81992 80.7322 4.81992 80.7322 6.23371C80.7322 7.56489 80.7322 8.89606 80.7322 10.2869C80.9782 10.0712 81.0466 9.84165 81.1468 9.6305C81.8485 8.18457 82.5639 6.73864 83.2519 5.28353C83.416 4.94385 83.6301 4.81074 84.0083 4.81992C85.6668 4.86123 85.4208 4.58581 85.4299 6.21994C85.4436 8.84098 85.4208 11.4666 85.4436 14.0876C85.4481 14.5926 85.3069 14.8267 84.7783 14.7716C84.4594 14.7394 84.1313 14.7486 83.8078 14.767C83.4068 14.7899 83.2656 14.6109 83.2701 14.2207C83.2838 12.9355 83.2747 11.6502 83.2747 10.3649C83.2747 10.1767 83.2747 9.99313 83.2747 9.80493C83.2291 9.79575 83.1881 9.78198 83.1517 9.7728Z" fill="white"/>
<path d="M45.8614 9.82788C45.8614 10.4797 45.8797 11.1315 45.8569 11.7787C45.8068 13.1879 44.9911 14.2988 43.7472 14.6981C42.4259 15.1204 40.8949 14.7119 40.1567 13.7342C39.6737 13.0961 39.4869 12.3479 39.4732 11.5676C39.455 10.3512 39.455 9.13475 39.4732 7.91834C39.496 6.04551 40.7946 4.74647 42.6446 4.73729C44.5036 4.72811 45.8159 5.99961 45.866 7.86784C45.8797 8.52884 45.866 9.18065 45.8614 9.82788C45.866 9.82788 45.866 9.82788 45.8614 9.82788ZM43.6926 9.82329C43.6926 9.15311 43.7108 8.48753 43.688 7.81735C43.6698 7.27111 43.3053 6.88553 42.8177 6.83963C42.2117 6.77995 41.7697 7.07832 41.633 7.6521C41.5966 7.79899 41.5829 7.95506 41.5829 8.11113C41.5783 9.22656 41.5783 10.342 41.5829 11.4528C41.5829 11.6227 41.6057 11.7971 41.6512 11.9578C41.8153 12.5499 42.2071 12.8253 42.7858 12.7656C43.3599 12.706 43.6789 12.3571 43.6926 11.7282C43.7017 11.0902 43.6926 10.4567 43.6926 9.82329Z" fill="white"/>
<path d="M26.911 13.5781C26.952 13.9958 26.8199 14.5742 26.8017 15.1572C26.7971 15.2719 26.8108 15.4188 26.6741 15.4693C26.5374 15.5244 26.4599 15.3958 26.3779 15.3178C25.9633 14.9322 25.5486 14.5512 25.1431 14.1611C22.915 12.0358 20.6914 9.90591 18.4679 7.78063C18.2902 7.61079 18.035 7.4639 18.2036 7.14258C18.3722 6.82127 18.3221 6.38519 18.8871 6.33011C20.6504 6.15109 22.4092 5.9124 24.168 5.69206C24.4505 5.65534 24.5553 5.85272 24.6784 6.04092C26.141 8.27637 26.8791 10.7367 26.911 13.5781Z" fill="white"/>
<path d="M12.3941 0.00474668C12.6082 -0.0273851 12.7723 0.105732 12.9044 0.339835C13.7063 1.75822 14.5128 3.16743 15.3193 4.58122C15.4196 4.76024 15.5517 4.96222 15.3285 5.13205C15.0277 5.35698 15.0915 5.94453 14.4764 5.86649C10.9588 5.42124 7.43207 5.00353 3.91447 4.57204C3.78689 4.55827 3.60919 4.62254 3.54995 4.45729C3.49983 4.30581 3.65475 4.21859 3.74588 4.12679C5.69606 2.08413 8.06087 0.79886 10.813 0.225079C11.2276 0.137864 11.6559 0.0919614 12.0751 0.0276979C12.1617 0.0139272 12.2483 0.0139272 12.3941 0.00474668Z" fill="white"/>
<path d="M63.8732 9.79575C63.8732 8.33605 63.8869 6.88094 63.8641 5.42124C63.8595 4.98058 64.0008 4.81533 64.4519 4.81992C66.0056 4.83828 67.5594 4.83369 69.1132 4.81992C69.4959 4.81533 69.6736 4.93467 69.6645 5.3478C69.628 7.07832 69.8878 6.78913 68.2565 6.81209C67.6596 6.82127 67.0627 6.82127 66.4658 6.81209C66.1195 6.8075 65.9692 6.95897 65.9783 7.30783C66.0102 9.05213 65.7322 8.70786 67.3407 8.74458C67.8009 8.75376 68.2611 8.75376 68.7259 8.74458C69.0175 8.7354 69.1633 8.82262 69.1542 9.15311C69.0995 11.0351 69.4549 10.6954 67.6551 10.7322C67.2268 10.7413 66.803 10.7413 66.3747 10.7367C66.0968 10.7322 65.9692 10.8561 65.9783 11.1407C65.9874 11.4987 65.9874 11.8614 65.9783 12.2194C65.9737 12.605 66.1332 12.7748 66.5342 12.7656C67.3863 12.7473 68.2429 12.7748 69.0949 12.7519C69.5096 12.7427 69.6736 12.885 69.6645 13.3165C69.6235 15.0286 69.906 14.7394 68.2383 14.7624C66.9898 14.7808 65.7459 14.7486 64.4974 14.7762C63.9962 14.7853 63.8504 14.6017 63.8595 14.1152C63.8869 12.6784 63.8732 11.2371 63.8732 9.79575Z" fill="white"/>
<path d="M31.6862 9.74984C31.6862 8.32687 31.6999 6.90389 31.6771 5.48091C31.668 5.00812 31.7956 4.79697 32.3105 4.81533C33.2309 4.85205 34.1513 4.81533 35.0762 4.8291C36.9398 4.85205 38.079 6.06388 38.0744 8.00096C38.0699 9.84624 36.8624 11.1131 35.0717 11.1545C33.7868 11.182 33.7868 11.182 33.7913 12.4673C33.7913 13.0824 33.7776 13.702 33.8004 14.3171C33.8141 14.6614 33.6728 14.7762 33.3539 14.767C32.9803 14.7532 32.6021 14.7486 32.2284 14.767C31.832 14.7853 31.6817 14.6201 31.6862 14.2253C31.6953 12.7335 31.6862 11.2417 31.6862 9.74984ZM33.7868 7.8862C33.7868 9.20361 33.7959 9.21279 34.9031 9.1577C35.5911 9.12557 35.983 8.68032 35.9739 7.93211C35.9648 7.22062 35.6185 6.8534 34.9213 6.82127C33.7868 6.76618 33.7868 6.76618 33.7868 7.8862Z" fill="white"/>
<path d="M55.6807 9.54787C55.7262 8.80425 55.5895 7.89538 55.8265 6.9957C56.191 5.63698 57.2435 4.79697 58.7107 4.74188C60.2144 4.6868 61.4309 5.47632 61.8775 6.77995C61.9868 7.09668 61.9595 7.31242 61.595 7.39964C61.3808 7.45013 61.1621 7.5098 60.9571 7.58784C60.4422 7.7944 60.0093 7.95506 59.6949 7.22521C59.5081 6.77995 58.975 6.72946 58.5148 6.86717C58.05 7.00947 57.8404 7.3721 57.8404 7.84948C57.8359 9.11639 57.8313 10.3879 57.845 11.6548C57.8495 12.1505 58.0136 12.5728 58.5467 12.7243C59.0935 12.8804 59.5992 12.6647 59.8635 12.1092C60.0139 11.7925 60.187 11.7696 60.465 11.8659C60.8204 11.9853 61.1803 12.1046 61.5448 12.1873C61.9367 12.2745 61.9731 12.4856 61.8683 12.8299C61.5357 13.927 60.392 14.7624 59.0889 14.8358C57.0521 14.9506 55.7308 13.6837 55.6715 11.5492C55.667 10.9479 55.6807 10.3282 55.6807 9.54787Z" fill="white"/>
<path d="M47.7706 9.7223C47.7706 9.05213 47.7569 8.38654 47.7752 7.71636C47.8116 6.21535 48.8095 5.03107 50.1901 4.81992C51.9808 4.5445 53.4024 5.2973 53.931 6.77077C54.0631 7.14258 54.013 7.35374 53.5938 7.43177C53.3614 7.47308 53.129 7.54653 52.9058 7.63374C52.4273 7.82653 52.0537 7.91375 51.7849 7.2757C51.5935 6.82586 51.0877 6.75241 50.623 6.85799C50.1445 6.96815 49.9167 7.33537 49.8848 7.79899C49.8484 8.3131 49.862 8.82721 49.862 9.34131C49.862 10.0803 49.8529 10.8148 49.8666 11.5538C49.8803 12.2515 50.1309 12.6188 50.6321 12.7427C51.188 12.8804 51.6573 12.6555 51.9443 12.045C52.0537 11.8109 52.1904 11.7879 52.3863 11.843C52.7827 11.9532 53.1655 12.1046 53.5664 12.1781C54.0403 12.2699 54.0267 12.5269 53.8991 12.885C53.4343 14.1978 52.0947 14.9919 50.5911 14.8404C48.855 14.666 47.8389 13.5873 47.7752 11.8292C47.7524 11.1269 47.7752 10.4246 47.7706 9.7223Z" fill="white"/>
<path d="M74.9637 10.7276C74.9637 11.8751 74.95 13.0273 74.9682 14.1748C74.9773 14.6201 74.8179 14.8037 74.3713 14.7716C74.0661 14.7486 73.7562 14.744 73.4509 14.7716C72.9634 14.8175 72.7902 14.6201 72.7948 14.1289C72.813 12.1046 72.8039 10.0803 72.8039 8.05604C72.8039 7.78063 72.7902 7.50521 72.8039 7.23439C72.8221 6.88553 72.6854 6.72946 72.3255 6.74323C71.9154 6.76159 71.5053 6.73864 71.0952 6.75241C70.8309 6.76159 70.7125 6.65602 70.7307 6.38978C70.7353 6.35765 70.7307 6.32093 70.7307 6.2888C70.7626 4.53991 70.4847 4.85664 72.1341 4.83369C73.5694 4.81533 75.0047 4.84287 76.44 4.82451C76.882 4.81992 77.046 4.96681 77.0369 5.41665C77.005 6.98192 77.2009 6.72487 75.7474 6.74323C74.9591 6.75241 74.9591 6.74782 74.9591 7.53735C74.9637 8.59769 74.9637 9.66263 74.9637 10.7276Z" fill="white"/>
<path d="M14.7224 0.0185174C18.0213 0.362786 20.8372 1.71691 23.1519 4.11302C23.4117 4.37925 23.3433 4.50319 23.0107 4.58122C21.5481 4.92549 20.09 5.26976 18.6319 5.6278C18.3904 5.68748 18.2537 5.62321 18.117 5.42583C17.7206 4.85205 17.1784 4.53532 16.4676 4.58122C16.2443 4.595 16.1213 4.50319 16.0393 4.30122C15.497 2.98841 14.9503 1.68019 14.4035 0.367376C14.2531 0.0139272 14.4627 -0.00443382 14.7224 0.0185174Z" fill="white"/>
<path d="M92.6929 24.3973C92.6929 24.2091 92.7112 24.0163 92.6884 23.8327C92.6565 23.5849 92.8388 23.2176 92.456 23.135C92.0642 23.0524 91.6905 23.1947 91.5083 23.5803C91.367 23.8878 91.2941 24.2275 91.1984 24.558C91.121 24.838 91.0526 25.1226 90.9979 25.4072C90.9524 25.6413 90.8248 25.7515 90.5833 25.7744C89.8816 25.8478 89.7859 25.7377 89.9773 25.0491C90.1322 24.4891 90.155 23.8419 90.4603 23.3829C90.8931 22.7357 90.8385 22.2629 90.4739 21.634C90.2188 21.1933 90.1732 20.6241 90.0456 20.1054C90.0001 19.9264 89.8406 19.651 90.1595 19.6051C90.4512 19.5592 90.8476 19.4123 90.9934 19.8484C91.1574 20.335 91.2668 20.8399 91.408 21.331C91.5219 21.7304 91.7224 22.0563 92.1826 22.1206C92.5152 22.1665 92.7021 22.0609 92.6975 21.6845C92.6838 21.1383 92.7112 20.5874 92.6975 20.0412C92.6884 19.6372 92.9025 19.5638 93.2443 19.5592C93.5997 19.5592 93.8457 19.6143 93.8321 20.055C93.8138 20.5507 93.8229 21.051 93.8321 21.5468C93.8366 21.7396 93.7592 21.9966 94.0052 22.093C94.274 22.194 94.5429 22.1343 94.7707 21.937C94.9803 21.7579 95.0486 21.5101 95.1215 21.2622C95.24 20.8491 95.3403 20.4359 95.4496 20.0182C95.5043 19.8117 95.5635 19.6372 95.8187 19.5822C96.4338 19.4582 96.6161 19.6372 96.4338 20.2432C96.206 20.9868 96.1878 21.8084 95.6045 22.4235C95.4496 22.5888 95.6501 22.6943 95.7367 22.8045C96.3427 23.6032 96.3609 24.5993 96.6252 25.5128C96.6753 25.6872 96.5295 25.7698 96.3791 25.756C96.083 25.7331 95.6866 25.9259 95.5499 25.4714C95.3995 24.9619 95.281 24.4432 95.1443 23.9337C95.035 23.5298 94.8345 23.213 94.3834 23.1258C94.0325 23.057 93.8184 23.1396 93.8275 23.5527C93.8412 24.1173 93.8138 24.6865 93.8275 25.2511C93.8412 25.6688 93.6452 25.779 93.2625 25.7744C92.8934 25.7698 92.6656 25.6918 92.6884 25.2649C92.7066 24.9803 92.6929 24.6911 92.6929 24.3973Z" fill="white"/>
<path d="M72.5624 23.5665C73.1821 22.3225 73.7334 21.2117 74.2939 20.1009C74.3896 19.9035 74.4533 19.6786 74.6903 19.5913C75.2462 19.3894 75.5788 19.6143 75.5788 20.211C75.5834 21.8543 75.5742 23.5022 75.5834 25.1455C75.5879 25.5495 75.5105 25.7882 75.0275 25.7836C74.5627 25.779 74.4397 25.5724 74.4488 25.1547C74.4625 24.1632 74.4534 23.1717 74.3713 22.1435C74.2073 22.4419 74.0342 22.7402 73.8792 23.0432C73.4874 23.8052 73.0819 24.558 72.7264 25.3383C72.5123 25.8157 72.1478 25.8203 71.7468 25.756C71.3458 25.6872 71.4689 25.3383 71.4643 25.0859C71.4552 23.4426 71.4643 21.7947 71.4552 20.1513C71.4506 19.7566 71.5509 19.5546 72.002 19.5546C72.4531 19.5546 72.5396 19.7658 72.5351 20.1559C72.5168 21.0832 72.5305 22.0058 72.5305 22.933C72.5351 23.0983 72.5487 23.2635 72.5624 23.5665Z" fill="white"/>
<path d="M56.6284 23.415C57.1934 22.2858 57.7584 21.1566 58.3189 20.0274C58.4373 19.7933 58.5512 19.5822 58.8702 19.5684C59.3987 19.5408 59.5081 19.6189 59.5081 20.1559C59.5127 21.836 59.5035 23.516 59.5172 25.2006C59.5218 25.6046 59.4079 25.7928 58.9704 25.7928C58.5057 25.7928 58.4419 25.5541 58.4464 25.1731C58.4601 24.1678 58.451 23.1626 58.3462 22.1297C58.0136 22.777 57.6764 23.4196 57.3438 24.0668C57.1068 24.5259 56.8608 24.9757 56.6421 25.4393C56.437 25.8846 56.0634 25.8019 55.7171 25.7515C55.3754 25.701 55.4619 25.3888 55.4619 25.1685C55.4528 23.5068 55.4619 21.8406 55.4528 20.1789C55.4528 19.8025 55.5075 19.5638 55.9723 19.5592C56.4507 19.5546 56.5418 19.7749 56.5327 20.1927C56.5145 21.253 56.5282 22.3179 56.5282 23.3829C56.5692 23.3875 56.6011 23.4012 56.6284 23.415Z" fill="white"/>
<path d="M76.4764 22.6209C76.4764 21.7809 76.4901 20.9409 76.4719 20.1009C76.4628 19.7015 76.6131 19.5454 77.0095 19.5638C77.5016 19.5867 77.9983 19.5684 78.495 19.5776C79.1602 19.5913 79.7161 19.83 79.9712 20.4818C80.2173 21.1153 80.2538 21.7625 79.7252 22.2996C79.5429 22.4832 79.5748 22.5842 79.748 22.754C80.3631 23.3553 80.3175 24.0898 80.0487 24.8059C79.789 25.4944 79.2012 25.756 78.4995 25.7744C78.0028 25.7836 77.5108 25.7652 77.0141 25.7836C76.6268 25.7974 76.4628 25.6551 76.4719 25.2465C76.4947 24.3698 76.4764 23.493 76.4764 22.6209ZM77.5381 23.8419C77.5381 24.7232 77.5381 24.7232 78.1259 24.7278C78.8595 24.7324 79.142 24.5029 79.1465 23.9062C79.1511 23.2819 78.8504 23.0203 78.1168 23.0157C77.5472 23.0111 77.5381 23.0203 77.5381 23.8419ZM77.5426 21.2851C77.5426 22.0333 77.5654 22.0609 78.1395 22.0609C78.8093 22.0609 79.0554 21.8543 79.0463 21.3081C79.0372 20.7848 78.7228 20.5737 78.0621 20.5369C77.4378 20.5002 77.5472 20.9179 77.5426 21.2851Z" fill="white"/>
<path d="M84.6143 22.6806C84.6143 23.1258 84.6325 23.5711 84.6097 24.0163C84.5596 25.0446 83.8124 25.7836 82.8008 25.8295C81.7711 25.88 80.9873 25.2878 80.8507 24.2642C80.714 23.2268 80.7322 22.1711 80.8415 21.1337C80.9509 20.055 81.7027 19.5179 82.8601 19.5546C83.8351 19.5913 84.5368 20.2707 84.6097 21.2897C84.6371 21.7533 84.6143 22.217 84.6143 22.6806ZM83.539 22.7311C83.5299 22.7311 83.5207 22.7311 83.5116 22.7311C83.5116 22.2675 83.5481 21.8038 83.5025 21.3494C83.4524 20.8996 83.2063 20.5966 82.6915 20.6058C82.1811 20.615 81.9305 20.9133 81.8941 21.3678C81.8212 22.2353 81.8166 23.1121 81.9032 23.9796C81.9579 24.535 82.3178 24.8288 82.7735 24.7921C83.22 24.7554 83.5162 24.4065 83.5435 23.8603C83.5526 23.4839 83.539 23.1075 83.539 22.7311Z" fill="white"/>
<path d="M62.5382 22.6668C62.5382 21.8268 62.5518 20.9868 62.5336 20.1468C62.5245 19.7428 62.6384 19.55 63.0804 19.5638C63.9689 19.5867 64.8574 19.5822 65.7414 19.5638C66.1104 19.5592 66.2654 19.6923 66.2608 20.0687C66.2517 21.7992 66.2517 23.5344 66.2654 25.2649C66.2699 25.6918 66.0649 25.779 65.6958 25.779C65.3176 25.779 65.19 25.6229 65.19 25.2511C65.2037 23.897 65.1764 22.5429 65.2037 21.1887C65.2128 20.7068 65.0716 20.5186 64.5658 20.5323C63.5953 20.5553 63.5953 20.5323 63.5953 21.5192C63.5953 22.754 63.5861 23.9888 63.6044 25.2236C63.6089 25.6137 63.4859 25.7836 63.0758 25.779C62.6885 25.7744 62.5199 25.6459 62.529 25.2373C62.5518 24.3836 62.5382 23.5252 62.5382 22.6668Z" fill="white"/>
<path d="M40.6944 22.6393C40.6944 21.7809 40.7035 20.9271 40.6898 20.0687C40.6807 19.6831 40.8493 19.5638 41.2093 19.5592C41.5875 19.5546 41.7879 19.6648 41.7697 20.0825C41.7515 20.615 41.7743 21.1428 41.7652 21.6753C41.756 22.0012 41.8882 22.1343 42.2163 22.1343C43.5832 22.1252 43.3508 22.2399 43.369 21.0464C43.3736 20.7389 43.3827 20.4268 43.369 20.1192C43.3508 19.7382 43.4738 19.5546 43.8885 19.5546C44.3077 19.5546 44.4535 19.7015 44.4535 20.1238C44.4353 21.8222 44.4398 23.516 44.4535 25.2144C44.458 25.6 44.3487 25.7744 43.934 25.779C43.5103 25.7836 43.3508 25.6275 43.369 25.2052C43.3918 24.659 43.3645 24.1081 43.3782 23.5619C43.3873 23.236 43.2551 23.0983 42.9271 23.1029C41.5783 23.1166 41.7925 22.9835 41.7697 24.1908C41.7652 24.5855 41.7652 24.9803 41.7652 25.3751C41.7697 25.7882 41.4827 25.7744 41.2002 25.7744C40.9177 25.779 40.6944 25.7285 40.6944 25.3613C40.6989 24.457 40.6944 23.5481 40.6944 22.6393Z" fill="white"/>
<path d="M89.2346 22.653C89.2346 23.493 89.2255 24.3331 89.2391 25.1731C89.2482 25.5541 89.1799 25.7836 88.7197 25.7882C88.2322 25.7974 88.1638 25.5541 88.1684 25.1501C88.182 23.8327 88.1547 22.5107 88.182 21.1933C88.1911 20.6792 87.9542 20.6012 87.5259 20.6058C87.1067 20.6058 86.8606 20.6655 86.8652 21.1887C86.8698 22.2307 86.97 23.2819 86.7558 24.3147C86.6146 25.0078 86.3093 25.5724 85.5848 25.8065C85.4299 25.857 85.234 25.9901 85.1429 25.7652C85.0472 25.5311 84.7966 25.1914 85.0791 25.0216C85.9812 24.48 85.8309 23.5849 85.8856 22.777C85.9311 22.0609 85.8537 21.3402 85.84 20.6241C85.8354 20.4038 85.8673 20.1789 85.8856 19.9586C85.9038 19.7153 86.0223 19.5867 86.2774 19.5867C87.1295 19.5867 87.9815 19.5867 88.8336 19.5822C89.1571 19.5776 89.2346 19.7612 89.23 20.0412C89.2209 20.9133 89.2255 21.7901 89.2255 22.6622C89.23 22.653 89.2346 22.653 89.2346 22.653Z" fill="white"/>
<path d="M36.6072 22.6301C36.6072 21.7901 36.6209 20.9501 36.6027 20.11C36.5936 19.7107 36.7439 19.5592 37.1449 19.5684C37.9651 19.5867 38.7852 19.5822 39.6054 19.5684C39.9426 19.5638 40.1112 19.674 40.1203 20.0366C40.1294 20.3809 40.0474 20.6058 39.651 20.6012C39.1543 20.5966 38.6622 20.6196 38.1655 20.6058C37.8147 20.5966 37.6871 20.7435 37.678 21.0969C37.6461 22.1389 37.637 22.1389 38.6759 22.1389C38.8445 22.1389 39.0176 22.1435 39.1862 22.1389C39.4915 22.1297 39.7512 22.116 39.7466 22.575C39.7421 23.0157 39.5689 23.1626 39.1634 23.1212C39.0267 23.1075 38.89 23.1166 38.7533 23.1212C37.5595 23.1488 37.6871 22.8596 37.6826 24.3377C37.6826 24.6268 37.8192 24.737 38.0926 24.7324C38.603 24.7278 39.1178 24.7462 39.6282 24.737C40.0246 24.7278 40.1112 24.9527 40.1157 25.297C40.1203 25.6459 39.979 25.7928 39.6282 25.7836C38.7898 25.7698 37.9559 25.7698 37.1175 25.7836C36.7394 25.7882 36.6027 25.6321 36.6072 25.2603C36.6163 24.379 36.6072 23.5068 36.6072 22.6301Z" fill="white"/>
<path d="M97.2084 22.6209C97.2084 21.7809 97.2221 20.9409 97.2039 20.1009C97.1947 19.7015 97.3542 19.5592 97.7506 19.5592C98.1516 19.5592 98.3612 19.6694 98.343 20.11C98.3248 20.5186 98.3612 20.9317 98.3339 21.3448C98.3111 21.7763 98.4478 22.0012 98.908 21.9553C99.0265 21.9415 99.1449 21.9553 99.2634 21.9691C100.507 22.1114 101.081 22.7862 101.018 24.0393C100.968 25.1318 100.275 25.756 99.0766 25.7744C98.6847 25.779 98.2929 25.779 97.901 25.779C97.2221 25.779 97.2039 25.756 97.1993 25.095C97.1993 24.2734 97.1993 23.4471 97.1993 22.6255C97.2039 22.6209 97.2039 22.6209 97.2084 22.6209ZM98.3293 23.8557C98.3293 24.7049 98.3475 24.7324 98.9399 24.7324C99.6188 24.7324 99.9377 24.4524 99.9377 23.8557C99.9377 23.2957 99.6097 23.0111 98.9581 23.0065C98.3384 23.0019 98.3293 23.0157 98.3293 23.8557Z" fill="white"/>
<path d="M67.1675 22.6393C67.1675 21.7992 67.1766 20.9592 67.163 20.1238C67.1539 19.7382 67.286 19.5546 67.6961 19.573C68.2064 19.5913 68.7213 19.5592 69.2316 19.5822C70.3616 19.6372 71.0087 20.3809 70.9768 21.556C70.9449 22.7127 70.2842 23.3967 69.1724 23.4242C69.0721 23.4288 68.9673 23.4334 68.8671 23.4242C68.4525 23.3783 68.2702 23.5435 68.293 23.975C68.3158 24.4019 68.2884 24.8288 68.2975 25.2603C68.3067 25.6688 68.1062 25.7882 67.728 25.7882C67.3498 25.7882 67.1584 25.678 67.1675 25.2603C67.1812 24.3836 67.1675 23.5114 67.1675 22.6393ZM68.293 21.4963C68.293 22.3317 68.3158 22.3684 68.9172 22.3684C69.5961 22.3684 69.9014 22.0976 69.9105 21.4825C69.9196 20.8904 69.5961 20.6104 68.9036 20.615C68.3158 20.6104 68.293 20.6425 68.293 21.4963Z" fill="white"/>
<path d="M49.1011 22.6714C49.1011 21.813 49.1148 20.9592 49.0965 20.1009C49.0874 19.6923 49.2469 19.5454 49.6388 19.5684C50.2357 19.6005 50.8326 19.5133 51.4249 19.6143C52.3499 19.7749 52.842 20.3946 52.8511 21.3907C52.8647 22.5016 52.3863 23.1901 51.4659 23.3829C51.3839 23.4012 51.2973 23.4104 51.2107 23.415C50.1719 23.4885 50.1719 23.4885 50.1719 24.5167C50.1719 24.7416 50.1536 24.9665 50.1764 25.1823C50.2311 25.6872 49.9714 25.7974 49.534 25.7744C49.1968 25.756 49.092 25.6046 49.0965 25.2924C49.1102 24.4203 49.1011 23.5481 49.1011 22.6714ZM50.1764 21.4779C50.1764 22.3501 50.181 22.3593 50.7688 22.3638C51.516 22.3684 51.7849 22.1297 51.7803 21.4687C51.7757 20.8307 51.5206 20.6104 50.787 20.6104C50.1855 20.6104 50.1764 20.6196 50.1764 21.4779Z" fill="white"/>
<path d="M46.2351 23.1442C46.2351 22.5429 46.2351 21.9461 46.2351 21.3448C46.2351 20.5645 46.2351 20.5369 45.4696 20.5507C45.0003 20.5599 44.8636 20.3625 44.9091 19.9356C44.9319 19.7107 45.0185 19.5776 45.2509 19.5776C46.2578 19.573 47.2648 19.5776 48.2718 19.573C48.609 19.573 48.6454 19.7979 48.6454 20.0595C48.6454 20.3258 48.5908 20.5094 48.2627 20.5415C47.3104 20.6333 47.315 20.6471 47.315 21.6202C47.315 22.7494 47.315 23.8832 47.315 25.0124C47.315 25.3842 47.4015 25.7744 46.791 25.779C46.1485 25.7882 46.2442 25.3751 46.2442 24.9849C46.2351 24.379 46.2351 23.7593 46.2351 23.1442Z" fill="white"/>
</svg>
