<svg width="115" height="31" viewBox="0 0 115 31" fill="none" xmlns="http://www.w3.org/2000/svg">
<path fill-rule="evenodd" clip-rule="evenodd" d="M39.3418 5.21057H114.999V26.9587H96.9178V25.4618H113.477V6.70754H39.3418V5.21057Z" fill="url(#paint0_linear_3_56189)"/>
<path d="M10.2203 18.9076V30.8253H8.00764L2.74301 23.3307H2.63752V30.8253H0.0830078V18.9076H2.32962L7.56063 26.4025H7.66612V18.9076H10.2203ZM15.8321 31C14.9156 31 14.1244 30.8091 13.4523 30.4214C12.7831 30.0337 12.2695 29.4959 11.9085 28.8048C11.5478 28.114 11.3672 27.3117 11.3672 26.394C11.3672 25.466 11.5478 24.6575 11.9085 23.9667C12.2695 23.276 12.7831 22.7382 13.4523 22.3505C14.1244 21.9625 14.9156 21.7715 15.8321 21.7715C16.7538 21.7715 17.5509 21.9625 18.2198 22.3505C18.889 22.7382 19.4055 23.276 19.7665 23.9667C20.1275 24.6575 20.3078 25.4657 20.3078 26.394C20.3078 27.3114 20.1275 28.114 19.7665 28.8048C19.4055 29.4959 18.889 30.0337 18.2198 30.4214C17.5509 30.8091 16.7538 31 15.8321 31ZM15.8485 29.0645C16.2649 29.0645 16.615 28.95 16.8982 28.7179C17.1813 28.4858 17.3923 28.1666 17.5367 27.7623C17.6811 27.3555 17.7533 26.8968 17.7533 26.3778C17.7533 25.8563 17.6811 25.3953 17.5367 24.9937C17.3923 24.595 17.1813 24.2812 16.8982 24.0517C16.615 23.8225 16.2652 23.7077 15.8485 23.7077C15.4269 23.7077 15.0715 23.8225 14.788 24.0517C14.5019 24.2812 14.2883 24.5953 14.1439 24.9937C14.0021 25.395 13.9299 25.8563 13.9299 26.3778C13.9299 26.8968 14.0021 27.3555 14.1439 27.7623C14.2883 28.1662 14.5019 28.4858 14.788 28.7179C15.0712 28.95 15.4266 29.0645 15.8485 29.0645ZM29.59 21.884L26.4164 30.8256H23.5701L20.4051 21.884H23.0651L24.9751 28.2894H25.0753L26.9524 21.884H29.59ZM32.6802 30.9952C32.1056 30.9922 31.589 30.894 31.1311 30.6947C30.6729 30.4927 30.3146 30.1951 30.0538 29.8016C29.793 29.4058 29.6622 28.917 29.6622 28.3299C29.6622 27.8278 29.7568 27.41 29.9397 27.0767C30.123 26.7438 30.3756 26.4731 30.695 26.266C31.0174 26.0585 31.381 25.9 31.7862 25.7934C32.1943 25.6867 32.6248 25.6131 33.0804 25.5694C33.6052 25.523 34.0298 25.4738 34.3492 25.4248C34.6687 25.3785 34.9044 25.3049 35.0517 25.2063C35.2017 25.1078 35.2769 24.9658 35.2769 24.7778V24.7395C35.2769 24.371 35.1576 24.0844 34.9215 23.8825C34.6855 23.6805 34.3552 23.5794 33.9273 23.5794C33.4747 23.5794 33.1167 23.675 32.8473 23.8714C32.581 24.0653 32.4029 24.311 32.3143 24.6115L29.9819 24.4258C30.1013 23.8825 30.3343 23.4131 30.6818 23.014C31.0286 22.6182 31.4759 22.31 32.0258 22.0941C32.5783 21.8785 33.2169 21.7719 33.9415 21.7719C34.4468 21.7719 34.9301 21.8292 35.3906 21.9469C35.8518 22.0639 36.2626 22.2445 36.6235 22.4876C36.9845 22.7307 37.2703 23.0416 37.4813 23.4267C37.6923 23.8118 37.7978 24.2676 37.7978 24.7943V30.8256H35.3989V29.5779H35.3323C35.1879 29.859 34.9908 30.1076 34.7465 30.3177C34.5048 30.5281 34.2105 30.6947 33.8689 30.8146C33.5277 30.9345 33.1305 30.9922 32.6805 30.9952H32.6802ZM33.4048 29.2833C33.7743 29.2833 34.102 29.2097 34.3852 29.0622C34.671 28.9147 34.8932 28.7183 35.0514 28.4696C35.2126 28.221 35.2931 27.9426 35.2931 27.634V26.6809C35.2153 26.7302 35.1098 26.7769 34.971 26.8174C34.8322 26.8612 34.6796 26.8994 34.5101 26.9292C34.3433 26.9623 34.1742 26.9892 34.0074 27.0142C33.8379 27.0388 33.688 27.0602 33.5521 27.0822C33.2521 27.1257 32.994 27.1915 32.7692 27.2871C32.547 27.3798 32.3749 27.5053 32.2526 27.6612C32.1336 27.8194 32.0723 28.0158 32.0723 28.2508C32.0723 28.5867 32.1943 28.8405 32.4442 29.0178C32.6944 29.1928 33.0131 29.2826 33.4048 29.2826V29.2833ZM44.0949 21.8843V23.7544H38.6196V21.8843H44.0949ZM39.8634 19.7546H42.379V28.0738C42.379 28.3743 42.4456 28.5928 42.5814 28.7348C42.7176 28.8765 42.9342 28.9449 43.2312 28.9449C43.3314 28.9449 43.4395 28.9393 43.5589 28.9228C43.6782 28.9066 43.7811 28.8872 43.8671 28.8658L44.2643 30.7222C43.9897 30.8013 43.7231 30.8613 43.4649 30.8969C43.2065 30.9349 42.954 30.9543 42.7041 30.9543C41.7988 30.9543 41.0993 30.7303 40.6048 30.2853C40.1107 29.8402 39.8634 29.2123 39.8634 28.4012V19.7546ZM49.2455 31.0004C48.3125 31.0004 47.5072 30.8149 46.8301 30.4409C46.1523 30.0697 45.6331 29.5371 45.2721 28.8463C44.9115 28.1555 44.7308 27.3393 44.7308 26.3947C44.7308 25.4777 44.9115 24.6721 45.2721 23.9784C45.6331 23.285 46.1414 22.7443 46.7994 22.3537C47.46 21.966 48.2347 21.7722 49.1235 21.7722C49.7261 21.7722 50.2869 21.8652 50.8061 22.0561C51.3279 22.2445 51.7835 22.5259 52.1748 22.9025C52.5638 23.2792 52.8691 23.7515 53.0856 24.3194C53.3022 24.8874 53.4107 25.5509 53.4107 26.3156V26.9873H45.7307V25.4582H52.1893L51.0203 25.8595C51.0203 25.4063 50.9482 25.0105 50.8067 24.6744C50.6679 24.3389 50.457 24.0792 50.1764 23.8938C49.8989 23.711 49.5517 23.618 49.1406 23.618C48.7273 23.618 48.3798 23.7136 48.094 23.8993C47.8108 24.0847 47.5916 24.3389 47.4386 24.6582C47.289 24.9778 47.2112 25.3464 47.2112 25.7642V26.8427C47.2112 27.3286 47.2998 27.7435 47.4719 28.0875C47.647 28.4314 47.8883 28.694 48.1991 28.8794C48.513 29.0622 48.8713 29.1549 49.2791 29.1549C49.5596 29.1549 49.8151 29.1141 50.0429 29.035C50.2707 28.953 50.4675 28.8359 50.6317 28.6829C50.7982 28.5273 50.9201 28.3416 51.0035 28.1231L53.3306 28.2735C53.2169 28.8249 52.9779 29.3027 52.6172 29.7096C52.2562 30.119 51.7924 30.4357 51.2234 30.6623C50.6541 30.8892 49.9935 31.0007 49.2465 31.0007L49.2455 31.0004ZM58.5748 31.0004C57.6474 31.0004 56.8503 30.8068 56.1838 30.4136C55.5175 30.023 55.0039 29.4797 54.6459 28.7889C54.2876 28.0978 54.1099 27.3007 54.1099 26.3944C54.1099 25.4773 54.2905 24.6718 54.6512 23.9781C55.0122 23.2847 55.5258 22.744 56.1923 22.3534C56.8586 21.9657 57.6527 21.7719 58.5748 21.7719C59.366 21.7719 60.0602 21.9113 60.6543 22.1949C61.2486 22.4763 61.7181 22.875 62.0649 23.3855C62.412 23.899 62.6009 24.5023 62.6338 25.193H60.26C60.2158 24.8955 60.1238 24.6332 59.9824 24.4095C59.841 24.1856 59.6547 24.0134 59.4217 23.8906C59.1883 23.7677 58.9163 23.7077 58.6081 23.7077C58.2164 23.7077 57.8779 23.8089 57.5865 24.0137C57.2977 24.2212 57.0729 24.5214 56.9117 24.9175C56.7534 25.3162 56.6727 25.7966 56.6727 26.362C56.6727 26.927 56.7534 27.4132 56.9117 27.8171C57.0729 28.2236 57.2977 28.5322 57.5865 28.7452C57.8779 28.9582 58.2164 29.0648 58.6081 29.0648C59.0412 29.0648 59.4078 28.9312 59.7048 28.6638C60.0048 28.3935 60.1878 28.022 60.26 27.5468H62.6338C62.5976 28.2294 62.409 28.8301 62.0734 29.3488C61.7375 29.8703 61.2737 30.2742 60.6823 30.5663C60.0909 30.8558 59.3884 31.0004 58.5748 31.0004ZM66.2377 25.6572V30.8256H63.725V18.9079H66.1572V23.4756H66.271C66.4763 22.946 66.807 22.531 67.2678 22.228C67.7261 21.9219 68.298 21.7719 68.9867 21.7719C69.6166 21.7719 70.1665 21.9057 70.6389 22.1758C71.111 22.4432 71.4776 22.8283 71.741 23.3307C72.0047 23.8303 72.1356 24.4339 72.1356 25.1379V30.8253H69.6143V25.5778C69.6143 25.029 69.47 24.6002 69.1868 24.289C68.901 23.9804 68.5008 23.8248 67.9872 23.8248C67.6404 23.8248 67.3348 23.8987 67.0763 24.0458C66.8156 24.1933 66.6098 24.4008 66.4599 24.6737C66.3128 24.9467 66.2377 25.2744 66.2377 25.6566V25.6572ZM76.1307 25.6572V30.8256H73.618V21.884H76.0891V23.4756H76.1811C76.3865 22.946 76.7142 22.531 77.1638 22.228C77.6138 21.9219 78.1772 21.7719 78.855 21.7719C79.4849 21.7719 80.0348 21.9057 80.5042 22.1787C80.9737 22.4516 81.3373 22.8367 81.598 23.3388C81.8565 23.8384 81.987 24.4394 81.987 25.1379V30.8253H79.4741V25.5778C79.4741 25.0342 79.3297 24.6057 79.0439 24.2945C78.7551 23.9833 78.3608 23.8248 77.8554 23.8248C77.5195 23.8248 77.2225 23.8987 76.9614 24.0458C76.7007 24.1933 76.4976 24.4008 76.3506 24.6737C76.2032 24.9467 76.131 25.2744 76.131 25.6566L76.1307 25.6572ZM87.5596 31.0004C86.6431 31.0004 85.8519 30.8094 85.1798 30.4217C84.5106 30.034 83.997 29.4963 83.636 28.8051C83.2753 28.1144 83.0947 27.3121 83.0947 26.3944C83.0947 25.4663 83.2753 24.6579 83.636 23.9671C83.997 23.2763 84.5106 22.7385 85.1798 22.3508C85.8519 21.9628 86.6431 21.7719 87.5596 21.7719C88.4813 21.7719 89.2784 21.9628 89.9473 22.3508C90.6165 22.7385 91.1331 23.2763 91.494 23.9671C91.855 24.6579 92.0353 25.466 92.0353 26.3944C92.0353 27.3117 91.855 28.1144 91.494 28.8051C91.1331 29.4963 90.6165 30.034 89.9473 30.4217C89.2784 30.8094 88.4813 31.0004 87.5596 31.0004ZM87.5761 29.0648C87.9924 29.0648 88.3425 28.9504 88.6257 28.7183C88.9089 28.4862 89.1198 28.1669 89.2642 27.7627C89.4086 27.3558 89.4808 26.8971 89.4808 26.3782C89.4808 25.8566 89.4086 25.3956 89.2642 24.994C89.1198 24.5953 88.9089 24.2815 88.6257 24.052C88.3425 23.8228 87.9927 23.7081 87.5761 23.7081C87.1544 23.7081 86.799 23.8228 86.5155 24.052C86.2294 24.2815 86.0158 24.5956 85.8714 24.994C85.7296 25.3953 85.6574 25.8566 85.6574 26.3782C85.6574 26.8971 85.7296 27.3558 85.8714 27.7627C86.0158 28.1666 86.2294 28.4862 86.5155 28.7183C86.7987 28.9504 87.1541 29.0648 87.5761 29.0648Z" fill="white"/>
<path d="M4.29511 11.9177H1.13831V9.75817H4.18137C4.94783 9.75817 5.58637 9.62721 6.10558 9.36204C6.62479 9.09753 7.01379 8.68488 7.27719 8.12246C7.54091 7.56037 7.67179 6.83684 7.67179 5.94929C7.67179 5.07017 7.54124 4.34924 7.27719 3.78975C7.01379 3.23025 6.62479 2.81759 6.10558 2.55567C5.58637 2.29083 4.95079 2.15955 4.18994 2.15955H1.09117V0H4.33697C5.55605 0 6.60534 0.237609 7.48553 0.715419C8.36275 1.19291 9.03756 1.87591 9.50963 2.76313C9.98202 3.65068 10.2177 4.71263 10.2177 5.94929C10.2177 7.19439 9.97873 8.25893 9.50699 9.14907C9.03195 10.0392 8.35187 10.7245 7.46905 11.2023C6.58326 11.6801 5.52802 11.9177 4.29544 11.9177H4.29511ZM2.55451 0V11.9177H0V0H2.55451ZM14.1219 0V11.9177H11.5673V0H14.1219ZM15.6821 11.9177V0H23.851V2.07786H18.237V4.87925H23.4264V6.91853H18.237V9.83726H23.8679V11.9177H15.6825H15.6821ZM25.2086 11.9177V10.4295L31.2614 2.07786H25.1944V0H34.4657V1.49632L28.4155 9.83694H34.4825V11.9174H25.2086V11.9177Z" fill="white"/>
<defs>
<linearGradient id="paint0_linear_3_56189" x1="67.0017" y1="-1.79613" x2="86.8227" y2="34.2492" gradientUnits="userSpaceOnUse">
<stop stop-color="#D02527"/>
<stop offset="0.227451" stop-color="#CA2C58"/>
<stop offset="0.368627" stop-color="#C33389"/>
<stop offset="0.521569" stop-color="#A337C1"/>
<stop offset="1" stop-color="#833CFA"/>
</linearGradient>
</defs>
</svg>
