<svg width="861" height="828" viewBox="0 0 861 828" fill="none" xmlns="http://www.w3.org/2000/svg">
<g filter="url(#filter0_d_690_5512)">
<rect x="100" y="262" width="98" height="462" fill="#D8D8D8"/>
<mask id="mask0_690_5512" style="mask-type:luminance" maskUnits="userSpaceOnUse" x="100" y="262" width="98" height="462">
<rect x="100" y="262" width="98" height="462" fill="white"/>
</mask>
<g mask="url(#mask0_690_5512)">
<rect x="100" y="262" width="661" height="462" fill="white"/>
<path fill-rule="evenodd" clip-rule="evenodd" d="M430.386 483.84C491.88 483.84 521.406 456.312 521.406 403.698C521.406 351.306 491.88 324 430.386 324C368.67 324 339.366 351.084 339.366 403.698C339.366 456.534 368.67 483.84 430.386 483.84ZM304.068 460.086V481.62H255.228V460.086H150V418.794L255.228 326.22H304.068V418.794H330.708V460.086H304.068ZM198.396 418.794H255.228V370.62L198.396 418.794ZM388.206 403.698C388.206 426.786 399.306 442.548 430.386 442.548C461.688 442.548 472.566 426.564 472.566 403.698C472.566 381.054 461.91 365.292 430.386 365.292C399.084 365.292 388.206 380.832 388.206 403.698ZM685.242 481.62V460.086H711.882V418.794H685.242V326.22H636.402L531.174 418.794V460.086H636.402V481.62H685.242ZM579.57 418.794H636.402V370.62L579.57 418.794Z" fill="black"/>
<path fill-rule="evenodd" clip-rule="evenodd" d="M430.386 483.84C491.88 483.84 521.406 456.312 521.406 403.698C521.406 351.306 491.88 324 430.386 324C368.67 324 339.366 351.084 339.366 403.698C339.366 456.534 368.67 483.84 430.386 483.84ZM304.068 460.086V481.62H255.228V460.086H150V418.794L255.228 326.22H304.068V418.794H330.708V460.086H304.068ZM198.396 418.794H255.228V370.62L198.396 418.794ZM388.206 403.698C388.206 426.786 399.306 442.548 430.386 442.548C461.688 442.548 472.566 426.564 472.566 403.698C472.566 381.054 461.91 365.292 430.386 365.292C399.084 365.292 388.206 380.832 388.206 403.698ZM685.242 481.62V460.086H711.882V418.794H685.242V326.22H636.402L531.174 418.794V460.086H636.402V481.62H685.242ZM579.57 418.794H636.402V370.62L579.57 418.794Z" fill="black"/>
</g>
<rect x="200" y="262" width="96" height="462" fill="#D8D8D8"/>
<mask id="mask1_690_5512" style="mask-type:luminance" maskUnits="userSpaceOnUse" x="200" y="262" width="96" height="462">
<rect x="200" y="262" width="96" height="462" fill="white"/>
</mask>
<g mask="url(#mask1_690_5512)">
<rect x="101" y="262" width="661" height="462" fill="white"/>
<path fill-rule="evenodd" clip-rule="evenodd" d="M431.386 483.84C492.88 483.84 522.406 456.312 522.406 403.698C522.406 351.306 492.88 324 431.386 324C369.67 324 340.366 351.084 340.366 403.698C340.366 456.534 369.67 483.84 431.386 483.84ZM305.068 460.086V481.62H256.228V460.086H151V418.794L256.228 326.22H305.068V418.794H331.708V460.086H305.068ZM199.396 418.794H256.228V370.62L199.396 418.794ZM389.206 403.698C389.206 426.786 400.306 442.548 431.386 442.548C462.688 442.548 473.566 426.564 473.566 403.698C473.566 381.054 462.91 365.292 431.386 365.292C400.084 365.292 389.206 380.832 389.206 403.698ZM686.242 481.62V460.086H712.882V418.794H686.242V326.22H637.402L532.174 418.794V460.086H637.402V481.62H686.242ZM580.57 418.794H637.402V370.62L580.57 418.794Z" fill="black"/>
<path fill-rule="evenodd" clip-rule="evenodd" d="M431.386 483.84C492.88 483.84 522.406 456.312 522.406 403.698C522.406 351.306 492.88 324 431.386 324C369.67 324 340.366 351.084 340.366 403.698C340.366 456.534 369.67 483.84 431.386 483.84ZM305.068 460.086V481.62H256.228V460.086H151V418.794L256.228 326.22H305.068V418.794H331.708V460.086H305.068ZM199.396 418.794H256.228V370.62L199.396 418.794ZM389.206 403.698C389.206 426.786 400.306 442.548 431.386 442.548C462.688 442.548 473.566 426.564 473.566 403.698C473.566 381.054 462.91 365.292 431.386 365.292C400.084 365.292 389.206 380.832 389.206 403.698ZM686.242 481.62V460.086H712.882V418.794H686.242V326.22H637.402L532.174 418.794V460.086H637.402V481.62H686.242ZM580.57 418.794H637.402V370.62L580.57 418.794Z" fill="black"/>
</g>
<rect x="298" y="262" width="91" height="462" fill="#D8D8D8"/>
<mask id="mask2_690_5512" style="mask-type:luminance" maskUnits="userSpaceOnUse" x="298" y="262" width="91" height="462">
<rect x="298" y="262" width="91" height="462" fill="white"/>
</mask>
<g mask="url(#mask2_690_5512)">
<rect x="102" y="262" width="661" height="462" fill="white"/>
<path fill-rule="evenodd" clip-rule="evenodd" d="M432.386 483.84C493.88 483.84 523.406 456.312 523.406 403.698C523.406 351.306 493.88 324 432.386 324C370.67 324 341.366 351.084 341.366 403.698C341.366 456.534 370.67 483.84 432.386 483.84ZM306.068 460.086V481.62H257.228V460.086H152V418.794L257.228 326.22H306.068V418.794H332.708V460.086H306.068ZM200.396 418.794H257.228V370.62L200.396 418.794ZM390.206 403.698C390.206 426.786 401.306 442.548 432.386 442.548C463.688 442.548 474.566 426.564 474.566 403.698C474.566 381.054 463.91 365.292 432.386 365.292C401.084 365.292 390.206 380.832 390.206 403.698ZM687.242 481.62V460.086H713.882V418.794H687.242V326.22H638.402L533.174 418.794V460.086H638.402V481.62H687.242ZM581.57 418.794H638.402V370.62L581.57 418.794Z" fill="black"/>
<path fill-rule="evenodd" clip-rule="evenodd" d="M432.386 483.84C493.88 483.84 523.406 456.312 523.406 403.698C523.406 351.306 493.88 324 432.386 324C370.67 324 341.366 351.084 341.366 403.698C341.366 456.534 370.67 483.84 432.386 483.84ZM306.068 460.086V481.62H257.228V460.086H152V418.794L257.228 326.22H306.068V418.794H332.708V460.086H306.068ZM200.396 418.794H257.228V370.62L200.396 418.794ZM390.206 403.698C390.206 426.786 401.306 442.548 432.386 442.548C463.688 442.548 474.566 426.564 474.566 403.698C474.566 381.054 463.91 365.292 432.386 365.292C401.084 365.292 390.206 380.832 390.206 403.698ZM687.242 481.62V460.086H713.882V418.794H687.242V326.22H638.402L533.174 418.794V460.086H638.402V481.62H687.242ZM581.57 418.794H638.402V370.62L581.57 418.794Z" fill="black"/>
</g>
<rect x="391" y="262" width="95" height="462" fill="#D8D8D8"/>
<mask id="mask3_690_5512" style="mask-type:luminance" maskUnits="userSpaceOnUse" x="391" y="262" width="95" height="462">
<rect x="391" y="262" width="95" height="462" fill="white"/>
</mask>
<g mask="url(#mask3_690_5512)">
<rect x="102" y="262" width="661" height="462" fill="white"/>
<path fill-rule="evenodd" clip-rule="evenodd" d="M432.386 483.84C493.88 483.84 523.406 456.312 523.406 403.698C523.406 351.306 493.88 324 432.386 324C370.67 324 341.366 351.084 341.366 403.698C341.366 456.534 370.67 483.84 432.386 483.84ZM306.068 460.086V481.62H257.228V460.086H152V418.794L257.228 326.22H306.068V418.794H332.708V460.086H306.068ZM200.396 418.794H257.228V370.62L200.396 418.794ZM390.206 403.698C390.206 426.786 401.306 442.548 432.386 442.548C463.688 442.548 474.566 426.564 474.566 403.698C474.566 381.054 463.91 365.292 432.386 365.292C401.084 365.292 390.206 380.832 390.206 403.698ZM687.242 481.62V460.086H713.882V418.794H687.242V326.22H638.402L533.174 418.794V460.086H638.402V481.62H687.242ZM581.57 418.794H638.402V370.62L581.57 418.794Z" fill="black"/>
<path fill-rule="evenodd" clip-rule="evenodd" d="M432.386 483.84C493.88 483.84 523.406 456.312 523.406 403.698C523.406 351.306 493.88 324 432.386 324C370.67 324 341.366 351.084 341.366 403.698C341.366 456.534 370.67 483.84 432.386 483.84ZM306.068 460.086V481.62H257.228V460.086H152V418.794L257.228 326.22H306.068V418.794H332.708V460.086H306.068ZM200.396 418.794H257.228V370.62L200.396 418.794ZM390.206 403.698C390.206 426.786 401.306 442.548 432.386 442.548C463.688 442.548 474.566 426.564 474.566 403.698C474.566 381.054 463.91 365.292 432.386 365.292C401.084 365.292 390.206 380.832 390.206 403.698ZM687.242 481.62V460.086H713.882V418.794H687.242V326.22H638.402L533.174 418.794V460.086H638.402V481.62H687.242ZM581.57 418.794H638.402V370.62L581.57 418.794Z" fill="black"/>
</g>
<rect x="488" y="262" width="89" height="462" fill="#D8D8D8"/>
<mask id="mask4_690_5512" style="mask-type:luminance" maskUnits="userSpaceOnUse" x="488" y="262" width="89" height="462">
<rect x="488" y="262" width="89" height="462" fill="white"/>
</mask>
<g mask="url(#mask4_690_5512)">
<rect x="102" y="262" width="661" height="462" fill="white"/>
<path fill-rule="evenodd" clip-rule="evenodd" d="M432.386 483.84C493.88 483.84 523.406 456.312 523.406 403.698C523.406 351.306 493.88 324 432.386 324C370.67 324 341.366 351.084 341.366 403.698C341.366 456.534 370.67 483.84 432.386 483.84ZM306.068 460.086V481.62H257.228V460.086H152V418.794L257.228 326.22H306.068V418.794H332.708V460.086H306.068ZM200.396 418.794H257.228V370.62L200.396 418.794ZM390.206 403.698C390.206 426.786 401.306 442.548 432.386 442.548C463.688 442.548 474.566 426.564 474.566 403.698C474.566 381.054 463.91 365.292 432.386 365.292C401.084 365.292 390.206 380.832 390.206 403.698ZM687.242 481.62V460.086H713.882V418.794H687.242V326.22H638.402L533.174 418.794V460.086H638.402V481.62H687.242ZM581.57 418.794H638.402V370.62L581.57 418.794Z" fill="black"/>
<path fill-rule="evenodd" clip-rule="evenodd" d="M432.386 483.84C493.88 483.84 523.406 456.312 523.406 403.698C523.406 351.306 493.88 324 432.386 324C370.67 324 341.366 351.084 341.366 403.698C341.366 456.534 370.67 483.84 432.386 483.84ZM306.068 460.086V481.62H257.228V460.086H152V418.794L257.228 326.22H306.068V418.794H332.708V460.086H306.068ZM200.396 418.794H257.228V370.62L200.396 418.794ZM390.206 403.698C390.206 426.786 401.306 442.548 432.386 442.548C463.688 442.548 474.566 426.564 474.566 403.698C474.566 381.054 463.91 365.292 432.386 365.292C401.084 365.292 390.206 380.832 390.206 403.698ZM687.242 481.62V460.086H713.882V418.794H687.242V326.22H638.402L533.174 418.794V460.086H638.402V481.62H687.242ZM581.57 418.794H638.402V370.62L581.57 418.794Z" fill="black"/>
</g>
<rect x="579" y="262" width="90" height="462" fill="#D8D8D8"/>
<mask id="mask5_690_5512" style="mask-type:luminance" maskUnits="userSpaceOnUse" x="579" y="262" width="90" height="462">
<rect x="579" y="262" width="90" height="462" fill="white"/>
</mask>
<g mask="url(#mask5_690_5512)">
<rect x="101" y="262" width="661" height="462" fill="white"/>
<path fill-rule="evenodd" clip-rule="evenodd" d="M431.386 483.84C492.88 483.84 522.406 456.312 522.406 403.698C522.406 351.306 492.88 324 431.386 324C369.67 324 340.366 351.084 340.366 403.698C340.366 456.534 369.67 483.84 431.386 483.84ZM305.068 460.086V481.62H256.228V460.086H151V418.794L256.228 326.22H305.068V418.794H331.708V460.086H305.068ZM199.396 418.794H256.228V370.62L199.396 418.794ZM389.206 403.698C389.206 426.786 400.306 442.548 431.386 442.548C462.688 442.548 473.566 426.564 473.566 403.698C473.566 381.054 462.91 365.292 431.386 365.292C400.084 365.292 389.206 380.832 389.206 403.698ZM686.242 481.62V460.086H712.882V418.794H686.242V326.22H637.402L532.174 418.794V460.086H637.402V481.62H686.242ZM580.57 418.794H637.402V370.62L580.57 418.794Z" fill="black"/>
<path fill-rule="evenodd" clip-rule="evenodd" d="M431.386 483.84C492.88 483.84 522.406 456.312 522.406 403.698C522.406 351.306 492.88 324 431.386 324C369.67 324 340.366 351.084 340.366 403.698C340.366 456.534 369.67 483.84 431.386 483.84ZM305.068 460.086V481.62H256.228V460.086H151V418.794L256.228 326.22H305.068V418.794H331.708V460.086H305.068ZM199.396 418.794H256.228V370.62L199.396 418.794ZM389.206 403.698C389.206 426.786 400.306 442.548 431.386 442.548C462.688 442.548 473.566 426.564 473.566 403.698C473.566 381.054 462.91 365.292 431.386 365.292C400.084 365.292 389.206 380.832 389.206 403.698ZM686.242 481.62V460.086H712.882V418.794H686.242V326.22H637.402L532.174 418.794V460.086H637.402V481.62H686.242ZM580.57 418.794H637.402V370.62L580.57 418.794Z" fill="black"/>
</g>
<rect x="671" y="262" width="90" height="462" fill="#D8D8D8"/>
<mask id="mask6_690_5512" style="mask-type:luminance" maskUnits="userSpaceOnUse" x="671" y="262" width="90" height="462">
<rect x="671" y="262" width="90" height="462" fill="white"/>
</mask>
<g mask="url(#mask6_690_5512)">
<rect x="100" y="262" width="661" height="462" fill="white"/>
<path fill-rule="evenodd" clip-rule="evenodd" d="M430.386 483.84C491.88 483.84 521.406 456.312 521.406 403.698C521.406 351.306 491.88 324 430.386 324C368.67 324 339.366 351.084 339.366 403.698C339.366 456.534 368.67 483.84 430.386 483.84ZM304.068 460.086V481.62H255.228V460.086H150V418.794L255.228 326.22H304.068V418.794H330.708V460.086H304.068ZM198.396 418.794H255.228V370.62L198.396 418.794ZM388.206 403.698C388.206 426.786 399.306 442.548 430.386 442.548C461.688 442.548 472.566 426.564 472.566 403.698C472.566 381.054 461.91 365.292 430.386 365.292C399.084 365.292 388.206 380.832 388.206 403.698ZM685.242 481.62V460.086H711.882V418.794H685.242V326.22H636.402L531.174 418.794V460.086H636.402V481.62H685.242ZM579.57 418.794H636.402V370.62L579.57 418.794Z" fill="black"/>
<path fill-rule="evenodd" clip-rule="evenodd" d="M430.386 483.84C491.88 483.84 521.406 456.312 521.406 403.698C521.406 351.306 491.88 324 430.386 324C368.67 324 339.366 351.084 339.366 403.698C339.366 456.534 368.67 483.84 430.386 483.84ZM304.068 460.086V481.62H255.228V460.086H150V418.794L255.228 326.22H304.068V418.794H330.708V460.086H304.068ZM198.396 418.794H255.228V370.62L198.396 418.794ZM388.206 403.698C388.206 426.786 399.306 442.548 430.386 442.548C461.688 442.548 472.566 426.564 472.566 403.698C472.566 381.054 461.91 365.292 430.386 365.292C399.084 365.292 388.206 380.832 388.206 403.698ZM685.242 481.62V460.086H711.882V418.794H685.242V326.22H636.402L531.174 418.794V460.086H636.402V481.62H685.242ZM579.57 418.794H636.402V370.62L579.57 418.794Z" fill="black"/>
</g>
</g>
<path d="M96 100H343.175L354.607 115H473.441L484.541 100H764C773.941 100 782 108.059 782 118V292H78V118C78 108.059 86.0589 100 96 100Z" fill="url(#paint0_linear_690_5512)"/>
<path d="M141.563 126H358.263L375.15 148.969H455.891L471.49 126H719.1C727.695 126 734.663 132.968 734.663 141.563V292H126V141.563C126 137.435 127.639 133.477 130.558 130.558C133.477 127.639 137.435 126 141.563 126Z" fill="url(#paint1_linear_690_5512)"/>
<rect x="55" y="324" width="750" height="280" fill="white"/>
<g filter="url(#filter1_d_690_5512)">
<rect x="99" y="30" width="661" height="462" fill="white"/>
<rect x="99.5" y="30.5" width="660" height="461" stroke="#CCCCCC"/>
</g>
<rect x="40" y="396" width="778" height="208" rx="4" fill="#2034E9"/>
<rect x="40" y="292" width="778" height="147" rx="18" fill="url(#paint2_linear_690_5512)"/>
<rect x="761" y="320" width="30" height="4" fill="white"/>
<defs>
<filter id="filter0_d_690_5512" x="0" y="166" width="861" height="662" filterUnits="userSpaceOnUse" color-interpolation-filters="sRGB">
<feFlood flood-opacity="0" result="BackgroundImageFix"/>
<feColorMatrix in="SourceAlpha" type="matrix" values="0 0 0 0 0 0 0 0 0 0 0 0 0 0 0 0 0 0 127 0" result="hardAlpha"/>
<feOffset dy="4"/>
<feGaussianBlur stdDeviation="50"/>
<feColorMatrix type="matrix" values="0 0 0 0 0.8625 0 0 0 0 0.8625 0 0 0 0 0.8625 0 0 0 0.57 0"/>
<feBlend mode="normal" in2="BackgroundImageFix" result="effect1_dropShadow_690_5512"/>
<feBlend mode="normal" in="SourceGraphic" in2="effect1_dropShadow_690_5512" result="shape"/>
</filter>
<filter id="filter1_d_690_5512" x="66" y="0" width="727" height="528" filterUnits="userSpaceOnUse" color-interpolation-filters="sRGB">
<feFlood flood-opacity="0" result="BackgroundImageFix"/>
<feColorMatrix in="SourceAlpha" type="matrix" values="0 0 0 0 0 0 0 0 0 0 0 0 0 0 0 0 0 0 127 0" result="hardAlpha"/>
<feOffset dy="3"/>
<feGaussianBlur stdDeviation="16.5"/>
<feColorMatrix type="matrix" values="0 0 0 0 0 0 0 0 0 0 0 0 0 0 0 0 0 0 0.15 0"/>
<feBlend mode="normal" in2="BackgroundImageFix" result="effect1_dropShadow_690_5512"/>
<feBlend mode="normal" in="SourceGraphic" in2="effect1_dropShadow_690_5512" result="shape"/>
</filter>
<linearGradient id="paint0_linear_690_5512" x1="660.56" y1="210.4" x2="660.56" y2="84.64" gradientUnits="userSpaceOnUse">
<stop stop-color="#060614"/>
<stop offset="1" stop-color="#9C9CAA"/>
</linearGradient>
<linearGradient id="paint1_linear_690_5512" x1="629.669" y1="221.45" x2="629.669" y2="112.72" gradientUnits="userSpaceOnUse">
<stop stop-color="#060614"/>
<stop offset="1" stop-color="#9C9CAA"/>
</linearGradient>
<linearGradient id="paint2_linear_690_5512" x1="201.346" y1="292" x2="201.346" y2="378.029" gradientUnits="userSpaceOnUse">
<stop stop-color="#667AEB"/>
<stop offset="1" stop-color="#2034E9"/>
</linearGradient>
</defs>
</svg>
