<svg width="270" height="170" viewBox="0 0 270 170" fill="none" xmlns="http://www.w3.org/2000/svg">
<path fill-rule="evenodd" clip-rule="evenodd" d="M267.99 78.0773C269.757 79.1242 270.34 81.405 269.293 83.1716C268.246 84.9382 265.965 85.5215 264.199 84.4746C262.432 83.4276 261.849 81.1468 262.896 79.3803C263.943 77.6137 266.223 77.0303 267.99 78.0773ZM241.475 108.87C245.891 111.487 247.35 117.189 244.732 121.605C242.115 126.022 236.413 127.48 231.997 124.863C227.58 122.245 226.122 116.543 228.739 112.127C231.357 107.711 237.059 106.252 241.475 108.87ZM143.528 127.646C139.088 125.068 137.579 119.38 140.156 114.94C142.734 110.5 148.423 108.991 152.863 111.569C157.302 114.147 158.812 119.835 156.234 124.275C153.656 128.715 147.967 130.224 143.528 127.646ZM81.8807 149.896C80.8496 151.671 81.4533 153.947 83.2292 154.978C85.005 156.009 87.2805 155.405 88.3117 153.63C89.3428 151.854 88.7391 149.578 86.9632 148.547C85.1874 147.516 82.9119 148.12 81.8807 149.896ZM195.293 97.1719C196.34 95.4053 195.757 93.1245 193.99 92.0775C192.223 91.0306 189.943 91.6139 188.896 93.3805C187.849 95.1471 188.432 97.4279 190.199 98.4748C191.965 99.5218 194.246 98.9384 195.293 97.1719ZM212.807 148.655C216.044 150.573 217.113 154.752 215.194 157.989C213.276 161.226 209.097 162.295 205.861 160.376C202.624 158.458 201.555 154.279 203.473 151.043C205.391 147.806 209.57 146.737 212.807 148.655ZM104.658 153.005C103.52 161.044 109.116 168.483 117.155 169.62C125.194 170.757 132.632 165.162 133.769 157.123C134.906 149.084 129.311 141.645 121.272 140.508C117.279 139.944 114.499 138.182 111.051 135.015L109.499 130.182C107.499 124.182 109.071 122.473 113.157 118.837C124.437 108.799 132.433 94.9334 134.942 78.8495C140.686 42.0255 115.491 7.51745 78.6669 1.77348C41.843 -3.97049 7.33489 21.2248 1.59092 58.0487C-4.15304 94.8726 21.0422 129.381 57.8661 135.125C69.7281 136.975 81.3497 135.615 91.8471 131.69C97.1118 129.721 100.836 130.175 103.499 135.125C105.781 139.364 106.765 145.868 105.256 150.44C104.985 151.262 104.783 152.119 104.658 153.005Z" fill="#060614"/>
</svg>
