<svg width="173" height="45" viewBox="0 0 173 45" fill="none" xmlns="http://www.w3.org/2000/svg">
<path d="M20.8186 45C18.8967 44.7628 16.9824 44.4492 15.128 43.8371C13.6491 43.3475 13.6191 43.3705 14.2347 41.9475C18.2436 32.6828 22.2525 23.4258 26.2765 14.1688C26.3891 13.9011 26.4491 13.5185 26.8695 13.5568C27.3575 13.6027 27.2975 14.0388 27.335 14.3524C27.6653 17.2443 27.9731 20.1438 28.2884 23.0357C28.7088 26.8991 29.1217 30.7549 29.5422 34.6184C29.8349 37.3419 30.1127 40.0731 30.4205 42.7967C30.4806 43.3475 30.1502 43.4776 29.7599 43.6229C27.9206 44.2809 26.0437 44.7475 24.0918 44.8852C23.8966 44.9005 23.7089 44.9618 23.5213 45C22.6204 45 21.7195 45 20.8186 45Z" fill="white"/>
<path d="M57.98 45C57.965 44.8317 57.9349 44.6634 57.9349 44.4874C57.9124 42.8808 58.1451 42.9573 56.3434 42.9573C55.2473 42.9573 54.1512 42.942 53.0552 42.965C52.4921 42.9726 52.2294 42.7508 52.2369 42.1617C52.2444 39.2469 52.2519 36.3321 52.2369 33.4173C52.2294 32.6752 52.6573 32.614 53.2278 32.6063C53.8209 32.5987 54.1137 32.7899 54.1137 33.4326C54.0987 35.6894 54.1362 37.9463 54.0987 40.2032C54.0837 40.9988 54.3765 41.2436 55.1347 41.236C56.7788 41.2207 56.7788 41.2513 56.7788 39.5606C56.7788 37.5638 56.8013 35.5594 56.7713 33.5626C56.7638 32.8664 56.9965 32.5987 57.6947 32.5987C58.3929 32.5987 58.543 32.9276 58.5355 33.5473C58.513 35.7736 58.528 38.0075 58.528 40.2338C58.528 40.7005 58.4905 41.1671 59.1211 41.2742C59.3989 41.3201 59.4139 41.5803 59.4064 41.8174C59.3838 42.8732 59.3688 43.9289 59.3463 44.9847C58.8809 45 58.4304 45 57.98 45Z" fill="white"/>
<path d="M172.992 42.9344C171.393 42.942 169.787 42.9267 168.188 42.9573C167.595 42.965 167.339 42.8043 167.347 42.1387C167.377 39.201 167.369 36.2556 167.347 33.3102C167.339 32.7823 167.512 32.5987 168.015 32.6063C169.674 32.6293 171.333 32.6216 172.992 32.6293C172.992 33.1419 172.992 33.6621 172.992 34.1747C172.287 34.4577 171.544 34.32 170.823 34.3277C169.029 34.3506 168.984 34.4042 169.126 36.2173C169.164 36.684 169.344 36.8906 169.802 36.8829C170.417 36.8753 171.041 36.9059 171.656 36.8829C172.264 36.86 172.527 37.0971 172.52 37.7321C172.512 38.3365 172.249 38.5583 171.694 38.5201C171.438 38.5048 171.191 38.5201 170.935 38.5201C168.984 38.566 169.149 38.1223 169.134 40.4327C169.126 41.0524 169.411 41.2207 169.96 41.213C170.973 41.1977 171.987 41.213 173 41.213C172.992 41.7945 172.992 42.3683 172.992 42.9344Z" fill="white"/>
<path d="M1.02925 29.1866C0.961689 28.6817 1.32955 28.5516 1.59231 28.3757C4.9631 26.1035 8.34141 23.839 11.7272 21.5744C15.9539 18.7438 20.1805 15.9208 24.4146 13.0978C24.6924 12.9142 24.9702 12.4934 25.3681 12.8147C25.811 13.1743 25.4356 13.5644 25.278 13.8858C21.9747 20.6717 18.6565 27.45 15.3383 34.2282C14.1596 36.6305 12.9734 39.0327 11.8023 41.4426C11.5921 41.8786 11.4194 42.177 10.8639 41.8327C6.14926 38.9026 2.87606 34.802 1.10433 29.462C1.0743 29.3549 1.04427 29.2401 1.02925 29.1866Z" fill="white"/>
<path d="M28.3109 13.9776C28.2509 13.5568 28.4386 13.4038 28.6788 13.2737C29.0317 13.0825 29.2569 13.2737 29.4821 13.5185C30.458 14.582 31.4415 15.6454 32.4175 16.7088C35.1351 19.6848 37.8453 22.6608 40.5554 25.6292C41.3587 26.5089 42.1545 27.3964 42.9728 28.2532C43.3106 28.6052 43.3707 28.9418 43.2205 29.4085C41.5014 34.7331 38.2507 38.8185 33.5736 41.7486C32.8979 42.1693 32.7553 42.0852 32.6277 41.2513C32.0121 37.3343 31.404 33.4173 30.7809 29.5003C29.9776 24.3974 29.1593 19.3023 28.3485 14.1994C28.3335 14.0923 28.3109 13.9776 28.3109 13.9776Z" fill="white"/>
<path d="M0.00825572 22.7526C0.0307778 18.1088 1.14937 14.1535 3.37155 10.5119C3.70938 9.95345 4.10727 9.73924 4.74539 9.77749C9.57261 10.0682 14.3998 10.336 19.2271 10.6037C20.691 10.6879 22.1474 10.7414 23.6113 10.8103C23.9642 10.8256 24.3771 10.7567 24.5197 11.2387C24.6774 11.7666 24.272 11.9349 23.9342 12.1415C16.7121 16.464 9.48252 20.7864 2.26046 25.1013C1.82503 25.3614 1.37459 25.6062 0.954181 25.8816C0.443682 26.2106 0.233476 25.9964 0.195939 25.4685C0.113359 24.4433 -0.0367884 23.4258 0.00825572 22.7526Z" fill="white"/>
<path d="M137.002 16.288C135.899 18.4684 134.69 20.5952 133.729 22.8368C133.113 24.2597 132.31 24.8259 130.794 24.6422C129.562 24.4969 129.547 24.6116 129.547 23.3264C129.547 18.6367 129.547 13.9546 129.547 9.26491C129.547 8.05615 129.555 8.05615 130.689 8.0485C133.016 8.0332 133.016 8.0332 133.016 10.3895C133.016 12.6081 133.016 14.8268 133.016 17.1448C133.421 16.7853 133.534 16.4028 133.699 16.0508C134.855 13.641 136.034 11.2311 137.167 8.80589C137.438 8.23976 137.791 8.01789 138.414 8.0332C141.146 8.10205 140.741 7.64302 140.756 10.3666C140.778 14.735 140.741 19.111 140.778 23.4794C140.786 24.3209 140.553 24.7111 139.682 24.6193C139.157 24.5657 138.616 24.581 138.083 24.6116C137.423 24.6499 137.19 24.3515 137.197 23.7012C137.22 21.5591 137.205 19.417 137.205 17.2749C137.205 16.9612 137.205 16.6552 137.205 16.3415C137.13 16.3262 137.062 16.3033 137.002 16.288Z" fill="white"/>
<path d="M75.5622 16.3798C75.5622 17.4662 75.5922 18.5525 75.5547 19.6312C75.4721 21.9799 74.1283 23.8313 72.0788 24.4969C69.9016 25.2007 67.3792 24.5198 66.163 22.8903C65.3672 21.8269 65.0594 20.5799 65.0369 19.2793C65.0069 17.2519 65.0069 15.2246 65.0369 13.1972C65.0744 10.0759 67.214 7.91079 70.262 7.89549C73.325 7.88019 75.4871 9.99935 75.5697 13.1131C75.5922 14.2147 75.5697 15.3011 75.5622 16.3798C75.5697 16.3798 75.5697 16.3798 75.5622 16.3798ZM71.9887 16.3721C71.9887 15.2552 72.0187 14.1459 71.9812 13.0289C71.9511 12.1185 71.3506 11.4759 70.5473 11.3994C69.5488 11.2999 68.8206 11.7972 68.5954 12.7535C68.5353 12.9983 68.5128 13.2584 68.5128 13.5185C68.5053 15.3776 68.5053 17.2366 68.5128 19.088C68.5128 19.3711 68.5503 19.6618 68.6254 19.9296C68.8957 20.9165 69.5413 21.3755 70.4947 21.2761C71.4407 21.1766 71.9662 20.5952 71.9887 19.5471C72.0037 18.4837 71.9887 17.4279 71.9887 16.3721Z" fill="white"/>
<path d="M44.3391 22.6302C44.4067 23.3264 44.189 24.2903 44.159 25.2619C44.1514 25.4532 44.174 25.698 43.9487 25.7822C43.7235 25.874 43.5959 25.6597 43.4608 25.5297C42.7776 24.8871 42.0944 24.2521 41.4263 23.6018C37.7552 20.0596 34.0916 16.5099 30.428 12.9677C30.1352 12.6846 29.7148 12.4398 29.9926 11.9043C30.2704 11.3688 30.1878 10.642 31.1187 10.5502C34.024 10.2518 36.9219 9.85399 39.8197 9.48677C40.2852 9.42557 40.4578 9.75454 40.6605 10.0682C43.0704 13.794 44.2866 17.8946 44.3391 22.6302Z" fill="white"/>
<path d="M20.4207 0.00791113C20.7736 -0.0456418 21.0438 0.17622 21.2615 0.566391C22.5828 2.93037 23.9116 5.27905 25.2404 7.63537C25.4056 7.93374 25.6233 8.27036 25.2555 8.55342C24.76 8.9283 24.8651 9.90755 23.8516 9.77749C18.0559 9.0354 12.2452 8.33921 6.44956 7.62007C6.23935 7.59712 5.94657 7.70423 5.84897 7.42881C5.76639 7.17635 6.02164 7.03099 6.17179 6.87798C9.38493 3.47355 13.2812 1.33143 17.8157 0.375131C18.4988 0.229773 19.2045 0.153269 19.8952 0.0461632C20.0379 0.023212 20.1805 0.023212 20.4207 0.00791113Z" fill="white"/>
<path d="M105.239 16.3262C105.239 13.8934 105.261 11.4682 105.224 9.0354C105.216 8.30096 105.449 8.02555 106.192 8.0332C108.752 8.0638 111.312 8.05615 113.872 8.0332C114.503 8.02555 114.796 8.22446 114.781 8.91299C114.72 11.7972 115.148 11.3152 112.461 11.3535C111.477 11.3688 110.494 11.3688 109.51 11.3535C108.94 11.3458 108.692 11.5983 108.707 12.1797C108.76 15.0869 108.302 14.5131 110.952 14.5743C111.71 14.5896 112.468 14.5896 113.234 14.5743C113.715 14.559 113.955 14.7044 113.94 15.2552C113.85 18.3919 114.435 17.8257 111.47 17.8869C110.764 17.9022 110.066 17.9022 109.36 17.8946C108.902 17.8869 108.692 18.0935 108.707 18.5678C108.722 19.1646 108.722 19.7689 108.707 20.3657C108.7 21.0083 108.962 21.2914 109.623 21.2761C111.027 21.2455 112.438 21.2914 113.842 21.2531C114.525 21.2378 114.796 21.475 114.781 22.1941C114.713 25.0477 115.178 24.5657 112.431 24.604C110.374 24.6346 108.324 24.581 106.267 24.6269C105.441 24.6422 105.201 24.3362 105.216 23.5253C105.261 21.1307 105.239 18.7285 105.239 16.3262Z" fill="white"/>
<path d="M52.2068 16.2497C52.2068 13.8781 52.2293 11.5065 52.1918 9.13486C52.1768 8.34686 52.387 7.99494 53.2353 8.02555C54.7518 8.08675 56.2683 8.02555 57.7923 8.0485C60.8628 8.08675 62.7396 10.1065 62.7321 13.3349C62.7246 16.4104 60.7352 18.5219 57.7848 18.5908C55.6677 18.6367 55.6677 18.6367 55.6752 20.7788C55.6752 21.8039 55.6527 22.8368 55.6902 23.8619C55.7128 24.4357 55.48 24.6269 54.9545 24.6116C54.3389 24.5887 53.7158 24.581 53.1002 24.6116C52.4471 24.6422 52.1993 24.3668 52.2068 23.7089C52.2218 21.2225 52.2068 18.7361 52.2068 16.2497ZM55.6677 13.1437C55.6677 15.3393 55.6827 15.3546 57.507 15.2628C58.6406 15.2093 59.2863 14.4672 59.2712 13.2202C59.2562 12.0344 58.6857 11.4223 57.537 11.3688C55.6677 11.277 55.6677 11.277 55.6677 13.1437Z" fill="white"/>
<path d="M91.7405 15.9131C91.8156 14.6738 91.5904 13.159 91.9807 11.6595C92.5813 9.39497 94.3155 7.99494 96.7329 7.90314C99.2103 7.81133 101.215 9.12721 101.95 11.2999C102.131 11.8278 102.086 12.1874 101.485 12.3327C101.132 12.4169 100.772 12.5163 100.434 12.6464C99.5857 12.9907 98.8725 13.2584 98.3545 12.042C98.0467 11.2999 97.1683 11.2158 96.4101 11.4453C95.6443 11.6824 95.299 12.2868 95.299 13.0825C95.2915 15.194 95.284 17.3131 95.3065 19.4247C95.314 20.2509 95.5843 20.9547 96.4626 21.2072C97.3635 21.4673 98.1968 21.1078 98.6322 20.1821C98.88 19.6542 99.1653 19.6159 99.6232 19.7766C100.209 19.9755 100.802 20.1744 101.402 20.3121C102.048 20.4575 102.108 20.8094 101.935 21.3832C101.387 23.2116 99.5031 24.604 97.356 24.7264C94.0002 24.9177 91.8231 22.8061 91.7255 19.2487C91.718 18.2465 91.7405 17.2137 91.7405 15.9131Z" fill="white"/>
<path d="M78.7078 16.2038C78.7078 15.0869 78.6852 13.9776 78.7153 12.8606C78.7753 10.3589 80.4194 8.38511 82.6942 8.0332C85.6445 7.57417 87.9868 8.82884 88.8577 11.2846C89.0754 11.9043 88.9928 12.2562 88.3021 12.3863C87.9193 12.4551 87.5364 12.5775 87.1685 12.7229C86.3803 13.0442 85.7647 13.1896 85.3217 12.1262C85.0064 11.3764 84.1731 11.254 83.4074 11.43C82.6191 11.6136 82.2437 12.2256 82.1912 12.9983C82.1311 13.8552 82.1536 14.712 82.1536 15.5689C82.1536 16.8006 82.1386 18.0246 82.1611 19.2564C82.1837 20.4192 82.5966 21.0313 83.4224 21.2378C84.3383 21.4673 85.1115 21.0925 85.5845 20.0749C85.7647 19.6848 85.9899 19.6465 86.3127 19.7383C86.9658 19.9219 87.5965 20.1744 88.2571 20.2968C89.0379 20.4498 89.0153 20.8782 88.8051 21.475C88.0394 23.663 85.8322 24.9865 83.3548 24.7341C80.4945 24.4433 78.8204 22.6455 78.7153 19.7154C78.6777 18.5449 78.7153 17.3744 78.7078 16.2038Z" fill="white"/>
<path d="M123.512 17.8793C123.512 19.7919 123.489 21.7121 123.519 23.6247C123.534 24.3668 123.271 24.6728 122.536 24.6193C122.033 24.581 121.522 24.5734 121.019 24.6193C120.216 24.6958 119.931 24.3668 119.938 23.5482C119.968 20.1744 119.953 16.8006 119.953 13.4267C119.953 12.9677 119.931 12.5087 119.953 12.0573C119.983 11.4759 119.758 11.2158 119.165 11.2387C118.489 11.2693 117.814 11.2311 117.138 11.254C116.702 11.2693 116.507 11.0934 116.537 10.6496C116.545 10.5961 116.537 10.5349 116.537 10.4813C116.59 7.56652 116.132 8.0944 118.85 8.05615C121.214 8.02555 123.579 8.07145 125.944 8.04085C126.672 8.0332 126.942 8.27801 126.927 9.02775C126.875 11.6365 127.198 11.2081 124.803 11.2387C123.504 11.254 123.504 11.2464 123.504 12.5622C123.512 14.3295 123.512 16.1044 123.512 17.8793Z" fill="white"/>
<path d="M24.257 0.0308624C29.6923 0.604643 34.3318 2.86152 38.1456 6.85503C38.5735 7.29876 38.4609 7.50532 37.9128 7.63537C35.503 8.20916 33.1006 8.78294 30.6983 9.37967C30.3004 9.47913 30.0752 9.37202 29.85 9.04305C29.1968 8.08675 28.3034 7.55887 27.1323 7.63537C26.7644 7.65833 26.5617 7.50532 26.4266 7.1687C25.5332 4.98068 24.6323 2.80031 23.7315 0.612294C23.4837 0.023212 23.8291 -0.00738971 24.257 0.0308624Z" fill="white"/>
<path d="M152.723 40.6622C152.723 40.3485 152.753 40.0272 152.715 39.7212C152.663 39.3081 152.963 38.6961 152.332 38.5583C151.687 38.4206 151.071 38.6578 150.771 39.3004C150.538 39.813 150.418 40.3792 150.26 40.93C150.133 41.3967 150.02 41.871 149.93 42.3453C149.855 42.7355 149.645 42.9191 149.247 42.9573C148.091 43.0797 147.933 42.8961 148.248 41.7486C148.504 40.8152 148.541 39.7365 149.044 38.9715C149.757 37.8928 149.667 37.1048 149.067 36.0567C148.646 35.3222 148.571 34.3736 148.361 33.5091C148.286 33.2107 148.023 32.7517 148.549 32.6752C149.029 32.5987 149.682 32.3539 149.922 33.0807C150.193 33.8916 150.373 34.7331 150.606 35.5517C150.793 36.2173 151.124 36.7605 151.882 36.8676C152.43 36.9441 152.738 36.7682 152.73 36.1408C152.708 35.2304 152.753 34.3124 152.73 33.402C152.715 32.7287 153.068 32.6063 153.631 32.5987C154.217 32.5987 154.622 32.6905 154.6 33.4249C154.569 34.2512 154.584 35.0851 154.6 35.9113C154.607 36.2326 154.479 36.661 154.885 36.8217C155.328 36.99 155.771 36.8906 156.146 36.5616C156.491 36.2632 156.604 35.8501 156.724 35.437C156.919 34.7484 157.084 34.0599 157.265 33.3637C157.355 33.0195 157.452 32.7287 157.873 32.6369C158.886 32.4304 159.186 32.7287 158.886 33.7386C158.511 34.978 158.481 36.3474 157.52 37.3725C157.265 37.6479 157.595 37.8239 157.738 38.0075C158.736 39.3387 158.766 40.9988 159.202 42.5213C159.284 42.812 159.044 42.9497 158.796 42.9267C158.308 42.8885 157.655 43.2098 157.43 42.4524C157.182 41.6032 156.987 40.7387 156.762 39.8895C156.581 39.2163 156.251 38.6884 155.508 38.543C154.93 38.4283 154.577 38.566 154.592 39.2545C154.615 40.1955 154.569 41.1442 154.592 42.0852C154.615 42.7814 154.292 42.965 153.661 42.9573C153.053 42.9497 152.678 42.8196 152.715 42.1081C152.745 41.6338 152.723 41.1518 152.723 40.6622Z" fill="white"/>
<path d="M119.555 39.2775C120.576 37.2042 121.485 35.3528 122.408 33.5014C122.566 33.1725 122.671 32.7976 123.061 32.6522C123.977 32.3156 124.525 32.6905 124.525 33.685C124.533 36.4239 124.518 39.1704 124.533 41.9092C124.54 42.5825 124.412 42.9803 123.617 42.9726C122.851 42.965 122.648 42.6207 122.663 41.9245C122.686 40.272 122.671 38.6196 122.536 36.9059C122.265 37.4031 121.98 37.9004 121.725 38.4053C121.079 39.6753 120.411 40.93 119.825 42.2305C119.473 43.0262 118.872 43.0338 118.211 42.9267C117.551 42.812 117.753 42.2305 117.746 41.8098C117.731 39.0709 117.746 36.3244 117.731 33.5856C117.723 32.9276 117.889 32.591 118.632 32.591C119.375 32.591 119.518 32.9429 119.51 33.5932C119.48 35.1386 119.503 36.6763 119.503 38.2217C119.51 38.4971 119.533 38.7726 119.555 39.2775Z" fill="white"/>
<path d="M93.302 39.025C94.2329 37.143 95.1639 35.261 96.0873 33.379C96.2824 32.9888 96.4701 32.6369 96.9957 32.614C97.8665 32.5681 98.0467 32.6981 98.0467 33.5932C98.0542 36.3933 98.0392 39.1933 98.0617 42.001C98.0692 42.6743 97.8815 42.9879 97.1608 42.9879C96.3951 42.9879 96.29 42.5901 96.2975 41.9551C96.32 40.2797 96.305 38.6043 96.1323 36.8829C95.5843 37.9616 95.0287 39.0327 94.4807 40.1114C94.0903 40.8764 93.6849 41.6262 93.3246 42.3989C92.9867 43.1409 92.3711 43.0032 91.8006 42.9191C91.2375 42.8349 91.3802 42.3147 91.3802 41.9475C91.3651 39.178 91.3801 36.4009 91.3651 33.6315C91.3651 33.0041 91.4552 32.6063 92.221 32.5987C93.0092 32.591 93.1594 32.9582 93.1444 33.6544C93.1143 35.4217 93.1369 37.1966 93.1369 38.9715C93.2044 38.9791 93.257 39.0021 93.302 39.025Z" fill="white"/>
<path d="M126.004 37.7015C126.004 36.3015 126.027 34.9015 125.997 33.5014C125.982 32.8358 126.229 32.5757 126.882 32.6063C127.693 32.6446 128.511 32.614 129.33 32.6293C130.426 32.6522 131.342 33.05 131.762 34.1364C132.168 35.1922 132.228 36.2709 131.357 37.166C131.056 37.472 131.109 37.6403 131.394 37.9234C132.408 38.9256 132.333 40.1496 131.89 41.3431C131.462 42.4907 130.493 42.9267 129.337 42.9573C128.519 42.9726 127.708 42.942 126.89 42.9726C126.252 42.9956 125.982 42.7584 125.997 42.0775C126.034 40.6163 126.004 39.1551 126.004 37.7015ZM127.753 39.7365C127.753 41.2054 127.753 41.2054 128.722 41.213C129.93 41.2207 130.396 40.8382 130.403 39.8436C130.411 38.8032 129.915 38.3671 128.707 38.3594C127.768 38.3518 127.753 38.3671 127.753 39.7365ZM127.761 35.4752C127.761 36.7222 127.798 36.7682 128.744 36.7682C129.848 36.7682 130.253 36.4239 130.238 35.5135C130.223 34.6413 129.705 34.2894 128.617 34.2282C127.588 34.167 127.768 34.8632 127.761 35.4752Z" fill="white"/>
<path d="M139.412 37.801C139.412 38.543 139.442 39.2851 139.405 40.0272C139.322 41.7409 138.091 42.9726 136.424 43.0491C134.728 43.1333 133.436 42.1464 133.211 40.4404C132.986 38.7114 133.016 36.9518 133.196 35.2228C133.376 33.4249 134.615 32.5298 136.522 32.591C138.128 32.6522 139.285 33.7845 139.405 35.4829C139.45 36.2556 139.412 37.0283 139.412 37.801ZM137.64 37.8851C137.625 37.8851 137.61 37.8851 137.595 37.8851C137.595 37.1124 137.655 36.3397 137.58 35.5823C137.498 34.8326 137.092 34.3277 136.244 34.343C135.403 34.3583 134.99 34.8555 134.93 35.6129C134.81 37.0589 134.803 38.5201 134.945 39.966C135.035 40.8917 135.628 41.3814 136.379 41.3201C137.115 41.2589 137.603 40.6775 137.648 39.7671C137.663 39.1398 137.64 38.5124 137.64 37.8851Z" fill="white"/>
<path d="M103.039 37.778C103.039 36.378 103.062 34.978 103.032 33.5779C103.017 32.9047 103.204 32.5834 103.932 32.6063C105.396 32.6446 106.86 32.6369 108.317 32.6063C108.925 32.5987 109.18 32.8205 109.173 33.4479C109.158 36.3321 109.158 39.2239 109.18 42.1081C109.188 42.8196 108.85 42.965 108.242 42.965C107.619 42.965 107.408 42.7049 107.408 42.0852C107.431 39.8283 107.386 37.5714 107.431 35.3146C107.446 34.5113 107.213 34.1976 106.38 34.2206C104.781 34.2588 104.781 34.2206 104.781 35.8654C104.781 37.9234 104.766 39.9813 104.796 42.0393C104.803 42.6896 104.601 42.9726 103.925 42.965C103.287 42.9573 103.009 42.7431 103.024 42.0622C103.062 40.6393 103.039 39.2086 103.039 37.778Z" fill="white"/>
<path d="M67.0489 37.7321C67.0489 36.3015 67.0639 34.8785 67.0413 33.4479C67.0263 32.8052 67.3041 32.6063 67.8972 32.5987C68.5203 32.591 68.8506 32.7746 68.8206 33.4708C68.7906 34.3583 68.8281 35.2381 68.8131 36.1255C68.7981 36.6687 69.0158 36.8906 69.5563 36.8906C71.8085 36.8753 71.4256 37.0665 71.4557 35.0774C71.4632 34.5648 71.4782 34.0446 71.4557 33.532C71.4256 32.897 71.6283 32.591 72.3115 32.591C73.0022 32.591 73.2424 32.8358 73.2424 33.5397C73.2124 36.3703 73.2199 39.1933 73.2424 42.024C73.2499 42.6666 73.0697 42.9573 72.3866 42.965C71.6884 42.9726 71.4256 42.7125 71.4557 42.0087C71.4932 41.0983 71.4482 40.1802 71.4707 39.2698C71.4857 38.7267 71.268 38.4971 70.7274 38.5048C68.5053 38.5277 68.8581 38.3059 68.8206 40.3179C68.8131 40.9759 68.8131 41.6338 68.8131 42.2918C68.8206 42.9803 68.3476 42.9573 67.8822 42.9573C67.4167 42.965 67.0489 42.8808 67.0489 42.2688C67.0564 40.7617 67.0489 39.2469 67.0489 37.7321Z" fill="white"/>
<path d="M147.025 37.7551C147.025 39.1551 147.01 40.5551 147.032 41.9551C147.047 42.5901 146.935 42.9726 146.176 42.9803C145.373 42.9956 145.26 42.5901 145.268 41.9169C145.29 39.7212 145.245 37.5179 145.29 35.3222C145.305 34.4654 144.915 34.3353 144.209 34.343C143.519 34.343 143.113 34.4424 143.121 35.3146C143.128 37.0512 143.293 38.8032 142.941 40.5245C142.708 41.6797 142.205 42.6207 141.011 43.0109C140.756 43.095 140.433 43.3169 140.283 42.942C140.125 42.5519 139.712 41.9857 140.178 41.7027C141.664 40.7999 141.417 39.3081 141.507 37.9616C141.582 36.7682 141.454 35.567 141.432 34.3736C141.424 34.0064 141.477 33.6315 141.507 33.2643C141.537 32.8588 141.732 32.6446 142.152 32.6446C143.556 32.6446 144.96 32.6446 146.364 32.6369C146.897 32.6293 147.025 32.9353 147.017 33.402C147.002 34.8555 147.01 36.3168 147.01 37.7704C147.017 37.7551 147.025 37.7551 147.025 37.7551Z" fill="white"/>
<path d="M60.3148 37.7168C60.3148 36.3168 60.3373 34.9168 60.3073 33.5167C60.2922 32.8511 60.54 32.5987 61.2006 32.614C62.5519 32.6446 63.9033 32.6369 65.2546 32.614C65.8101 32.6063 66.0879 32.7899 66.1029 33.3943C66.1179 33.9681 65.9828 34.343 65.3297 34.3353C64.5114 34.3277 63.7006 34.3659 62.8823 34.343C62.3042 34.3277 62.094 34.5725 62.079 35.1616C62.0264 36.8982 62.0114 36.8982 63.7231 36.8982C64.0009 36.8982 64.2861 36.9059 64.5639 36.8982C65.0669 36.8829 65.4948 36.86 65.4873 37.625C65.4798 38.3594 65.1945 38.6043 64.5264 38.5354C64.3012 38.5124 64.0759 38.5277 63.8507 38.5354C61.8838 38.5813 62.094 38.0993 62.0865 40.5628C62.0865 41.0447 62.3117 41.2283 62.7622 41.2207C63.603 41.213 64.4513 41.2436 65.2921 41.2283C65.9453 41.213 66.0879 41.5879 66.0954 42.1617C66.1029 42.7431 65.8702 42.9879 65.2921 42.9726C63.9108 42.9497 62.5369 42.9497 61.1556 42.9726C60.5325 42.9803 60.3073 42.7202 60.3148 42.1005C60.3298 40.6316 60.3148 39.178 60.3148 37.7168Z" fill="white"/>
<path d="M160.162 37.7015C160.162 36.3015 160.185 34.9015 160.155 33.5014C160.14 32.8358 160.403 32.5987 161.056 32.5987C161.716 32.5987 162.062 32.7823 162.032 33.5167C162.002 34.1976 162.062 34.8862 162.017 35.5747C161.979 36.2938 162.204 36.6687 162.963 36.5922C163.158 36.5692 163.353 36.5922 163.548 36.6151C165.598 36.8523 166.544 37.9769 166.439 40.0655C166.356 41.8863 165.215 42.9267 163.24 42.9573C162.595 42.965 161.949 42.965 161.304 42.965C160.185 42.965 160.155 42.9267 160.147 41.8251C160.147 40.4557 160.147 39.0786 160.147 37.7092C160.155 37.7015 160.155 37.7015 160.162 37.7015ZM162.009 39.7595C162.009 41.1748 162.039 41.2207 163.015 41.2207C164.134 41.2207 164.659 40.754 164.659 39.7595C164.659 38.8261 164.119 38.3518 163.045 38.3441C162.024 38.3365 162.009 38.3594 162.009 39.7595Z" fill="white"/>
<path d="M110.667 37.7321C110.667 36.3321 110.682 34.9321 110.659 33.5397C110.644 32.897 110.862 32.591 111.537 32.6216C112.378 32.6522 113.227 32.5987 114.067 32.6369C115.929 32.7287 116.995 33.9681 116.943 35.9266C116.89 37.8545 115.802 38.9944 113.97 39.0403C113.805 39.048 113.632 39.0556 113.467 39.0403C112.784 38.9638 112.483 39.2392 112.521 39.9584C112.558 40.6699 112.513 41.3814 112.528 42.1005C112.543 42.7814 112.213 42.9803 111.59 42.9803C110.967 42.9803 110.652 42.7967 110.667 42.1005C110.689 40.6393 110.667 39.1857 110.667 37.7321ZM112.521 35.8272C112.521 37.2195 112.558 37.2807 113.549 37.2807C114.668 37.2807 115.171 36.8294 115.186 35.8042C115.201 34.8173 114.668 34.3506 113.527 34.3583C112.558 34.3506 112.521 34.4042 112.521 35.8272Z" fill="white"/>
<path d="M80.8999 37.7857C80.8999 36.355 80.9224 34.9321 80.8924 33.5014C80.8774 32.8205 81.1401 32.5757 81.7858 32.614C82.7692 32.6675 83.7527 32.5222 84.7286 32.6905C86.2526 32.9582 87.0634 33.9911 87.0784 35.6512C87.101 37.5026 86.3127 38.6502 84.7962 38.9715C84.6611 39.0021 84.5184 39.0174 84.3758 39.025C82.6641 39.1474 82.6641 39.1474 82.6641 40.8611C82.6641 41.236 82.6341 41.6109 82.6716 41.9704C82.7617 42.812 82.3338 42.9956 81.6131 42.9573C81.0576 42.9267 80.8849 42.6743 80.8924 42.154C80.9149 40.7005 80.8999 39.2469 80.8999 37.7857ZM82.6716 35.7966C82.6716 37.2501 82.6791 37.2654 83.6476 37.2731C84.8788 37.2807 85.3217 36.8829 85.3142 35.7812C85.3067 34.7178 84.8863 34.3506 83.6776 34.3506C82.6866 34.3506 82.6716 34.3659 82.6716 35.7966Z" fill="white"/>
<path d="M76.1778 38.5737C76.1778 37.5714 76.1778 36.5769 76.1778 35.5747C76.1778 34.2741 76.1778 34.2282 74.9165 34.2512C74.1433 34.2665 73.9181 33.9375 73.9931 33.226C74.0307 32.8511 74.1733 32.6293 74.5562 32.6293C76.2153 32.6216 77.8744 32.6293 79.5336 32.6216C80.0891 32.6216 80.1492 32.9965 80.1492 33.4326C80.1492 33.8763 80.0591 34.1823 79.5185 34.2359C77.9495 34.3889 77.957 34.4118 77.957 36.0337C77.957 37.9157 77.957 39.8054 77.957 41.6874C77.957 42.3071 78.0997 42.9573 77.0937 42.965C76.0351 42.9803 76.1928 42.2918 76.1928 41.6415C76.1778 40.6316 76.1778 39.5988 76.1778 38.5737Z" fill="white"/>
</svg>
