<svg width="87" height="27" viewBox="0 0 87 27" fill="none" xmlns="http://www.w3.org/2000/svg">
<path d="M12.8657 27C11.678 26.8577 10.495 26.6695 9.349 26.3023C8.43503 26.0085 8.41647 26.0223 8.79691 25.1685C11.2744 19.6097 13.7519 14.0555 16.2386 8.5013C16.3082 8.34064 16.3453 8.11113 16.6051 8.13408C16.9067 8.16162 16.8696 8.42326 16.8928 8.61146C17.0969 10.3466 17.2871 12.0863 17.482 13.8214C17.7418 16.1395 17.997 18.453 18.2568 20.771C18.4377 22.4052 18.6094 24.0439 18.7996 25.678C18.8367 26.0085 18.6326 26.0865 18.3913 26.1738C17.2547 26.5685 16.0948 26.8485 14.8885 26.9311C14.7679 26.9403 14.6519 26.977 14.5359 27C13.9792 27 13.4225 27 12.8657 27Z" fill="white"/>
<path d="M35.8311 27C35.8218 26.899 35.8033 26.798 35.8033 26.6925C35.7894 25.7285 35.9332 25.7744 34.8197 25.7744C34.1424 25.7744 33.465 25.7652 32.7876 25.779C32.4397 25.7836 32.2773 25.6505 32.2819 25.297C32.2866 23.5481 32.2912 21.7992 32.2819 20.0504C32.2773 19.6051 32.5417 19.5684 32.8943 19.5638C33.2609 19.5592 33.4418 19.674 33.4418 20.0595C33.4325 21.4137 33.4557 22.7678 33.4325 24.1219C33.4232 24.5993 33.6042 24.7462 34.0728 24.7416C35.0888 24.7324 35.0888 24.7508 35.0888 23.7363C35.0888 22.5383 35.1027 21.3356 35.0842 20.1376C35.0795 19.7199 35.2234 19.5592 35.6548 19.5592C36.0863 19.5592 36.1791 19.7566 36.1744 20.1284C36.1605 21.4642 36.1698 22.8045 36.1698 24.1403C36.1698 24.4203 36.1466 24.7003 36.5363 24.7645C36.708 24.7921 36.7173 24.9482 36.7126 25.0905C36.6987 25.7239 36.6894 26.3574 36.6755 26.9908C36.3879 27 36.1095 27 35.8311 27Z" fill="white"/>
<path d="M0.636071 17.512C0.594315 17.209 0.821649 17.131 0.984031 17.0254C3.06715 15.6621 5.15492 14.3034 7.24732 12.9447C9.85935 11.2463 12.4714 9.55246 15.088 7.85866C15.2597 7.7485 15.4314 7.49603 15.6772 7.68882C15.951 7.90456 15.719 8.13867 15.6216 8.33146C13.5802 12.403 11.5296 16.47 9.47891 20.5369C8.75051 21.9783 8.01748 23.4196 7.29372 24.8655C7.16381 25.1272 7.0571 25.3062 6.71378 25.0996C3.80019 23.3416 1.77738 20.8812 0.682465 17.6772C0.663907 17.6129 0.645349 17.5441 0.636071 17.512Z" fill="white"/>
<path d="M17.4959 8.38654C17.4588 8.13408 17.5748 8.04227 17.7233 7.96424C17.9413 7.84948 18.0805 7.96424 18.2197 8.11113C18.8228 8.74917 19.4306 9.38722 20.0337 10.0253C21.7132 11.8109 23.3881 13.5965 25.0629 15.3775C25.5593 15.9054 26.0511 16.4378 26.5568 16.9519C26.7656 17.1631 26.8027 17.3651 26.7099 17.6451C25.6475 20.8399 23.6386 23.2911 20.7482 25.0491C20.3306 25.3016 20.2425 25.2511 20.1636 24.7508C19.7832 22.4006 19.4074 20.0504 19.0223 17.7002C18.5259 14.6385 18.0202 11.5814 17.5191 8.51966C17.5098 8.4554 17.4959 8.38654 17.4959 8.38654Z" fill="white"/>
<path d="M0.00510196 13.6516C0.0190204 10.8653 0.710302 8.49212 2.08359 6.30716C2.29236 5.97207 2.53826 5.84354 2.93261 5.86649C5.91579 6.04092 8.89898 6.20158 11.8822 6.36224C12.7869 6.41273 13.6869 6.44487 14.5916 6.48618C14.8097 6.49536 15.0648 6.45405 15.153 6.74323C15.2504 7.05996 14.9999 7.16094 14.7911 7.28488C10.3279 9.87837 5.86012 12.4719 1.39694 15.0608C1.12785 15.2168 0.849486 15.3637 0.589676 15.529C0.274191 15.7263 0.144286 15.5978 0.121089 15.2811C0.0700546 14.666 -0.0227349 14.0555 0.00510196 13.6516Z" fill="white"/>
<path d="M84.6662 9.7728C83.9842 11.081 83.2373 12.3571 82.6434 13.702C82.263 14.5558 81.7666 14.8955 80.8294 14.7853C80.0685 14.6981 80.0592 14.767 80.0592 13.9958C80.0592 11.182 80.0592 8.37277 80.0592 5.55895C80.0592 4.83369 80.0639 4.83369 80.7644 4.8291C82.2027 4.81992 82.2027 4.81992 82.2027 6.23371C82.2027 7.56489 82.2027 8.89606 82.2027 10.2869C82.4532 10.0712 82.5228 9.84165 82.6249 9.6305C83.3393 8.18457 84.0677 6.73864 84.7683 5.28353C84.9353 4.94385 85.1534 4.81074 85.5384 4.81992C87.2272 4.86123 86.9767 4.58581 86.986 6.21994C86.9999 8.84098 86.9767 11.4666 86.9999 14.0876C87.0045 14.5926 86.8607 14.8267 86.3225 14.7716C85.9978 14.7394 85.6637 14.7486 85.3343 14.767C84.926 14.7899 84.7822 14.6109 84.7869 14.2207C84.8008 12.9355 84.7915 11.6502 84.7915 10.3649C84.7915 10.1767 84.7915 9.99313 84.7915 9.80493C84.7451 9.79575 84.7033 9.78198 84.6662 9.7728Z" fill="white"/>
<path d="M46.6968 9.82788C46.6968 10.4797 46.7153 11.1315 46.6921 11.7787C46.6411 13.1879 45.8106 14.2988 44.5441 14.6981C43.1986 15.1204 41.6397 14.7119 40.8882 13.7342C40.3964 13.0961 40.2061 12.3479 40.1922 11.5676C40.1737 10.3512 40.1737 9.13475 40.1922 7.91834C40.2154 6.04551 41.5377 4.74647 43.4213 4.73729C45.3142 4.72811 46.6504 5.99961 46.7014 7.86784C46.7153 8.52884 46.7014 9.18065 46.6968 9.82788C46.7014 9.82788 46.7014 9.82788 46.6968 9.82788ZM44.4884 9.82329C44.4884 9.15311 44.5069 8.48753 44.4837 7.81735C44.4652 7.27111 44.094 6.88553 43.5976 6.83963C42.9806 6.77995 42.5305 7.07832 42.3913 7.6521C42.3542 7.79899 42.3403 7.95506 42.3403 8.11113C42.3357 9.22656 42.3357 10.342 42.3403 11.4528C42.3403 11.6227 42.3635 11.7971 42.4099 11.9578C42.5769 12.5499 42.9759 12.8253 43.5651 12.7656C44.1497 12.706 44.4745 12.3571 44.4884 11.7282C44.4977 11.0902 44.4884 10.4567 44.4884 9.82329Z" fill="white"/>
<path d="M27.4012 13.5781C27.443 13.9958 27.3084 14.5742 27.2899 15.1572C27.2852 15.2719 27.2991 15.4188 27.1599 15.4693C27.0208 15.5244 26.9419 15.3958 26.8584 15.3178C26.4362 14.9322 26.014 14.5512 25.6011 14.1611C23.3324 12.0358 21.0683 9.90591 18.8043 7.78063C18.6233 7.61079 18.3635 7.4639 18.5352 7.14258C18.7068 6.82127 18.6558 6.38519 19.2311 6.33011C21.0266 6.15109 22.8174 5.9124 24.6082 5.69206C24.8959 5.65534 25.0026 5.85272 25.1279 6.04092C26.6171 8.27637 27.3687 10.7367 27.4012 13.5781Z" fill="white"/>
<path d="M12.6198 0.00474668C12.8379 -0.0273851 13.0049 0.105732 13.1395 0.339835C13.956 1.75822 14.7772 3.16743 15.5984 4.58122C15.7004 4.76024 15.835 4.96222 15.6077 5.13205C15.3015 5.35698 15.3664 5.94453 14.7401 5.86649C11.1584 5.42124 7.56745 5.00353 3.98577 4.57204C3.85587 4.55827 3.67493 4.62254 3.61461 4.45729C3.56358 4.30581 3.72132 4.21859 3.81411 4.12679C5.79981 2.08413 8.20769 0.79886 11.0099 0.225079C11.4321 0.137864 11.8682 0.0919614 12.2951 0.0276979C12.3832 0.0139272 12.4714 0.0139272 12.6198 0.00474668Z" fill="white"/>
<path d="M65.0366 9.79575C65.0366 8.33605 65.0505 6.88094 65.0273 5.42124C65.0227 4.98058 65.1665 4.81533 65.6258 4.81992C67.2079 4.83828 68.7899 4.83369 70.372 4.81992C70.7617 4.81533 70.9427 4.93467 70.9334 5.3478C70.8963 7.07832 71.1607 6.78913 69.4998 6.81209C68.892 6.82127 68.2842 6.82127 67.6765 6.81209C67.3239 6.80749 67.1708 6.95897 67.1801 7.30783C67.2125 9.05213 66.9295 8.70786 68.5673 8.74458C69.0358 8.75376 69.5044 8.75376 69.9777 8.74458C70.2746 8.7354 70.423 8.82261 70.4138 9.15311C70.3581 11.0351 70.72 10.6954 68.8874 10.7322C68.4513 10.7413 68.0198 10.7413 67.5837 10.7367C67.3007 10.7322 67.1708 10.8561 67.1801 11.1407C67.1893 11.4987 67.1893 11.8614 67.1801 12.2194C67.1754 12.605 67.3378 12.7748 67.7461 12.7656C68.6137 12.7473 69.4859 12.7748 70.3534 12.7519C70.7756 12.7427 70.9427 12.885 70.9334 13.3165C70.8916 15.0286 71.1793 14.7394 69.4812 14.7624C68.21 14.7808 66.9434 14.7486 65.6722 14.7762C65.1619 14.7853 65.0134 14.6017 65.0227 14.1152C65.0505 12.6784 65.0366 11.2371 65.0366 9.79575Z" fill="white"/>
<path d="M32.2634 9.74984C32.2634 8.32687 32.2773 6.90389 32.2541 5.48091C32.2448 5.00812 32.3747 4.79697 32.899 4.81533C33.8362 4.85205 34.7733 4.81533 35.7151 4.8291C37.6127 4.85205 38.7726 6.06388 38.7679 8.00096C38.7633 9.84624 37.5338 11.1131 35.7105 11.1545C34.4022 11.182 34.4022 11.182 34.4068 12.4673C34.4068 13.0824 34.3929 13.702 34.4161 14.3171C34.43 14.6614 34.2862 14.7762 33.9614 14.767C33.581 14.7532 33.1959 14.7486 32.8155 14.767C32.4118 14.7853 32.2587 14.6201 32.2634 14.2253C32.2726 12.7335 32.2634 11.2417 32.2634 9.74984ZM34.4022 7.8862C34.4022 9.20361 34.4114 9.21279 35.5388 9.1577C36.2394 9.12557 36.6384 8.68032 36.6291 7.93211C36.6198 7.22062 36.2672 6.8534 35.5574 6.82127C34.4022 6.76618 34.4022 6.76618 34.4022 7.8862Z" fill="white"/>
<path d="M56.6948 9.54787C56.7412 8.80425 56.6021 7.89538 56.8433 6.99569C57.2145 5.63698 58.2862 4.79697 59.7801 4.74188C61.3111 4.6868 62.5499 5.47632 63.0045 6.77995C63.1159 7.09668 63.088 7.31242 62.7169 7.39964C62.4988 7.45013 62.2761 7.5098 62.0674 7.58784C61.5431 7.7944 61.1023 7.95506 60.7822 7.22521C60.592 6.77995 60.0492 6.72946 59.5806 6.86717C59.1074 7.00947 58.894 7.3721 58.894 7.84948C58.8893 9.11639 58.8847 10.3879 58.8986 11.6548C58.9032 12.1505 59.0703 12.5728 59.6131 12.7243C60.1698 12.8804 60.6848 12.6647 60.9539 12.1092C61.107 11.7925 61.2833 11.7696 61.5663 11.8659C61.9282 11.9853 62.2947 12.1046 62.6658 12.1873C63.0648 12.2745 63.102 12.4856 62.9952 12.8299C62.6566 13.927 61.4921 14.7624 60.1652 14.8358C58.0913 14.9506 56.7459 13.6837 56.6856 11.5492C56.6809 10.9479 56.6948 10.3282 56.6948 9.54787Z" fill="white"/>
<path d="M48.6407 9.7223C48.6407 9.05213 48.6268 8.38654 48.6454 7.71636C48.6825 6.21535 49.6985 5.03107 51.1043 4.81992C52.9276 4.5445 54.3751 5.2973 54.9133 6.77077C55.0478 7.14258 54.9968 7.35374 54.57 7.43177C54.3334 7.47308 54.0967 7.54653 53.8694 7.63374C53.3823 7.82653 53.0018 7.91375 52.7281 7.2757C52.5332 6.82586 52.0183 6.75241 51.545 6.85799C51.0579 6.96815 50.8259 7.33537 50.7934 7.79899C50.7563 8.3131 50.7702 8.8272 50.7702 9.34131C50.7702 10.0803 50.761 10.8148 50.7749 11.5538C50.7888 12.2515 51.044 12.6188 51.5543 12.7427C52.1203 12.8804 52.5982 12.6555 52.8905 12.045C53.0018 11.8109 53.141 11.7879 53.3405 11.843C53.7441 11.9532 54.1339 12.1046 54.5421 12.1781C55.0246 12.2699 55.0107 12.5269 54.8808 12.885C54.4076 14.1978 53.0436 14.9919 51.5125 14.8404C49.7449 14.666 48.7103 13.5873 48.6454 11.8292C48.6222 11.1269 48.6454 10.4246 48.6407 9.7223Z" fill="white"/>
<path d="M76.3291 10.7276C76.3291 11.8751 76.3152 13.0273 76.3337 14.1748C76.343 14.6201 76.1806 14.8037 75.726 14.7716C75.4151 14.7486 75.0996 14.744 74.7888 14.7716C74.2924 14.8175 74.1161 14.6201 74.1207 14.1289C74.1393 12.1046 74.13 10.0803 74.13 8.05604C74.13 7.78063 74.1161 7.50521 74.13 7.23439C74.1485 6.88553 74.0094 6.72946 73.6428 6.74323C73.2253 6.76159 72.8077 6.73864 72.3902 6.75241C72.1211 6.76159 72.0005 6.65602 72.019 6.38978C72.0237 6.35765 72.019 6.32093 72.019 6.2888C72.0515 4.53991 71.7685 4.85664 73.448 4.83369C74.9094 4.81533 76.3708 4.84287 77.8323 4.82451C78.2823 4.81992 78.4493 4.96681 78.4401 5.41665C78.4076 6.98192 78.6071 6.72487 77.1271 6.74323C76.3245 6.75241 76.3245 6.74782 76.3245 7.53735C76.3291 8.59769 76.3291 9.66263 76.3291 10.7276Z" fill="white"/>
<path d="M14.9906 0.0185174C18.3496 0.362786 21.2168 1.71691 23.5736 4.11302C23.8381 4.37925 23.7685 4.50319 23.4298 4.58122C21.9405 4.92549 20.4559 5.26976 18.9713 5.6278C18.7254 5.68747 18.5862 5.62321 18.447 5.42583C18.0434 4.85205 17.4913 4.53532 16.7675 4.58122C16.5402 4.595 16.4149 4.50319 16.3314 4.30122C15.7793 2.98841 15.2226 1.68019 14.6658 0.367376C14.5127 0.0139272 14.7262 -0.00443382 14.9906 0.0185174Z" fill="white"/>
<path d="M41.4356 22.6393C41.4356 21.7809 41.4449 20.9271 41.431 20.0687C41.4217 19.6831 41.5934 19.5638 41.9599 19.5592C42.345 19.5546 42.5491 19.6648 42.5305 20.0825C42.512 20.615 42.5352 21.1428 42.5259 21.6753C42.5166 22.0012 42.6512 22.1343 42.9852 22.1343C44.377 22.1252 44.1404 22.2399 44.159 21.0464C44.1636 20.7389 44.1729 20.4268 44.159 20.1192C44.1404 19.7382 44.2657 19.5546 44.6879 19.5546C45.1147 19.5546 45.2632 19.7015 45.2632 20.1238C45.2446 21.8222 45.2493 23.516 45.2632 25.2144C45.2678 25.6 45.1565 25.7744 44.7343 25.779C44.3028 25.7836 44.1404 25.6275 44.159 25.2052C44.1822 24.659 44.1543 24.1081 44.1683 23.5619C44.1775 23.236 44.043 23.0983 43.709 23.1029C42.3357 23.1166 42.5537 22.9835 42.5305 24.1908C42.5259 24.5855 42.5259 24.9803 42.5259 25.3751C42.5305 25.7882 42.2382 25.7744 41.9506 25.7744C41.6629 25.779 41.4356 25.7285 41.4356 25.3613C41.4403 24.457 41.4356 23.5481 41.4356 22.6393Z" fill="white"/>
<path d="M37.274 22.6301C37.274 21.7901 37.2879 20.9501 37.2694 20.11C37.2601 19.7107 37.4132 19.5592 37.8215 19.5684C38.6566 19.5867 39.4917 19.5822 40.3268 19.5684C40.6701 19.5638 40.8418 19.674 40.851 20.0366C40.8603 20.3809 40.7768 20.6058 40.3732 20.6012C39.8675 20.5966 39.3664 20.6196 38.8607 20.6058C38.5035 20.5966 38.3736 20.7435 38.3643 21.0969C38.3318 22.1389 38.3225 22.1389 39.3803 22.1389C39.552 22.1389 39.7283 22.1435 39.8999 22.1389C40.2108 22.1297 40.4752 22.116 40.4706 22.575C40.466 23.0157 40.2897 23.1625 39.8767 23.1212C39.7376 23.1075 39.5984 23.1166 39.4592 23.1212C38.2437 23.1488 38.3736 22.8596 38.3689 24.3377C38.3689 24.6268 38.5081 24.737 38.7865 24.7324C39.3061 24.7278 39.8304 24.7462 40.35 24.737C40.7536 24.7278 40.8418 24.9527 40.8464 25.297C40.851 25.6459 40.7072 25.7928 40.35 25.7836C39.4963 25.7698 38.6473 25.7698 37.7936 25.7836C37.4085 25.7882 37.2694 25.6321 37.274 25.2603C37.2833 24.379 37.274 23.5068 37.274 22.6301Z" fill="white"/>
<path d="M49.9954 22.6714C49.9954 21.813 50.0094 20.9592 49.9908 20.1009C49.9815 19.6923 50.1439 19.5454 50.5429 19.5684C51.1507 19.6005 51.7584 19.5133 52.3616 19.6143C53.3034 19.7749 53.8044 20.3946 53.8137 21.3907C53.8276 22.5016 53.3405 23.1901 52.4033 23.3829C52.3198 23.4012 52.2317 23.4104 52.1435 23.415C51.0857 23.4885 51.0857 23.4885 51.0857 24.5167C51.0857 24.7416 51.0672 24.9665 51.0904 25.1823C51.146 25.6872 50.8816 25.7974 50.4362 25.7744C50.0929 25.756 49.9862 25.6046 49.9908 25.2924C50.0047 24.4203 49.9954 23.5481 49.9954 22.6714ZM51.0904 21.4779C51.0904 22.3501 51.095 22.3593 51.6935 22.3638C52.4544 22.3684 52.7281 22.1297 52.7235 21.4687C52.7188 20.8307 52.459 20.6104 51.712 20.6104C51.0996 20.6104 51.0904 20.6196 51.0904 21.4779Z" fill="white"/>
<path d="M47.0772 23.1442C47.0772 22.5429 47.0772 21.9461 47.0772 21.3448C47.0772 20.5645 47.0772 20.5369 46.2978 20.5507C45.8199 20.5599 45.6807 20.3625 45.7271 19.9356C45.7503 19.7107 45.8385 19.5776 46.0751 19.5776C47.1004 19.573 48.1257 19.5776 49.1511 19.573C49.4944 19.573 49.5315 19.7979 49.5315 20.0595C49.5315 20.3258 49.4758 20.5094 49.1418 20.5415C48.1721 20.6333 48.1768 20.6471 48.1768 21.6202C48.1768 22.7494 48.1768 23.8832 48.1768 25.0124C48.1768 25.3842 48.2649 25.7744 47.6432 25.779C46.9891 25.7882 47.0865 25.3751 47.0865 24.9849C47.0772 24.379 47.0772 23.7593 47.0772 23.1442Z" fill="white"/>
</svg>
