<svg width="24" height="24" viewBox="0 0 24 24" xmlns="http://www.w3.org/2000/svg">
<path fill-rule="evenodd" clip-rule="evenodd" d="M3.75 2.625C3.75 2.4179 3.9179 2.25 4.125 2.25H16.875C17.0822 2.25 17.25 2.4179 17.25 2.625V14.2297C17.25 14.851 17.7537 15.3547 18.375 15.3547C18.9963 15.3547 19.5 14.851 19.5 14.2297V2.625C19.5 1.17525 18.3248 0 16.875 0H4.125C2.67525 0 1.5 1.17525 1.5 2.625V19.875C1.5 21.3248 2.67525 22.5 4.125 22.5H8.88124C9.50256 22.5 10.0062 21.9963 10.0062 21.375C10.0062 20.7537 9.50256 20.25 8.88124 20.25H4.125C3.9179 20.25 3.75 20.0821 3.75 19.875V2.625ZM7.125 6C6.50368 6 6 6.50368 6 7.125C6 7.74632 6.50368 8.25 7.125 8.25H13.875C14.4963 8.25 15 7.74632 15 7.125C15 6.50368 14.4963 6 13.875 6H7.125ZM6 11.625C6 11.0037 6.50368 10.5 7.125 10.5H10.125C10.7463 10.5 11.25 11.0037 11.25 11.625C11.25 12.2463 10.7463 12.75 10.125 12.75H7.125C6.50368 12.75 6 12.2463 6 11.625ZM23.661 16.9299C24.1054 16.4958 24.114 15.7835 23.6799 15.339C23.2458 14.8945 22.5334 14.886 22.089 15.3201L16.0505 21.2171L13.9219 19.0809C13.4833 18.6408 12.771 18.6396 12.3309 19.0781C11.8908 19.5167 11.8895 20.229 12.3281 20.6691L15.2427 23.5941C15.6782 24.031 16.3843 24.0359 16.8257 23.6049L23.661 16.9299Z"/>
</svg>
