<svg width="24" height="24" viewBox="0 0 24 24" xmlns="http://www.w3.org/2000/svg">
<path fill-rule="evenodd" clip-rule="evenodd" d="M15.4145 4.63493C15.4857 4.54944 15.5913 4.5 15.7026 4.5H16.875C17.0821 4.5 17.25 4.6679 17.25 4.875V7.125V15.375V17.625C17.25 17.8322 17.0821 18 16.875 18H15.7026C15.5913 18 15.4857 17.9505 15.4145 17.865L13.9893 16.1549C13.8066 15.9357 13.5476 15.7941 13.2645 15.7587L8.57848 15.173C8.39082 15.1494 8.25 14.99 8.25 14.8008V10.875V7.69917C8.25 7.51005 8.39082 7.35052 8.57848 7.32706L13.2645 6.74131C13.5476 6.70593 13.8066 6.56435 13.9893 6.34521L15.4145 4.63493ZM6 12V14.8008C6 16.1247 6.98579 17.2413 8.29941 17.4056L12.545 17.9363L13.686 19.3055C14.1847 19.9039 14.9235 20.25 15.7026 20.25H16.875C18.3248 20.25 19.5 19.0748 19.5 17.625V16.5H22.875C23.4963 16.5 24 15.9963 24 15.375C24 14.7537 23.4963 14.25 22.875 14.25H19.5V8.25H22.875C23.4963 8.25 24 7.74632 24 7.125C24 6.50368 23.4963 6 22.875 6H19.5V4.875C19.5 3.42525 18.3248 2.25 16.875 2.25H15.7026C14.9235 2.25 14.1847 2.59603 13.686 3.19452L12.545 4.56375L8.29941 5.09445C6.98579 5.25864 6 6.37533 6 7.69917V9.75H3.75C1.67894 9.75 0 11.4289 0 13.5V21.375C0 21.9963 0.503679 22.5 1.125 22.5C1.74632 22.5 2.25 21.9963 2.25 21.375V13.5C2.25 12.6716 2.92158 12 3.75 12H6Z"/>
</svg>
