<svg width="24" height="28" viewBox="0 0 24 28" fill="none" xmlns="http://www.w3.org/2000/svg">
<g id="Group">
<path id="Vector" d="M4.8 3.07942e-07C3.52696 3.07942e-07 2.30606 0.421428 1.40589 1.17157C0.505713 1.92172 0 2.93913 0 4V24C0 25.0609 0.505713 26.0783 1.40589 26.8284C2.30606 27.5786 3.52696 28 4.8 28H19.2C20.473 28 21.6939 27.5786 22.5941 26.8284C23.4943 26.0783 24 25.0609 24 24V8.828C23.9992 8.03262 23.6193 7.27007 22.944 6.708L15.9528 0.878C15.6183 0.599466 15.2213 0.378567 14.7844 0.227918C14.3475 0.0772688 13.8792 -0.000178218 13.4064 3.07942e-07H4.8ZM2.4 4C2.4 3.46957 2.65286 2.96086 3.10294 2.58579C3.55303 2.21071 4.16348 2 4.8 2H12V7C12 7.79565 12.3793 8.55871 13.0544 9.12132C13.7295 9.68393 14.6452 10 15.6 10H21.6V24C21.6 24.5304 21.3471 25.0391 20.8971 25.4142C20.447 25.7893 19.8365 26 19.2 26H4.8C4.16348 26 3.55303 25.7893 3.10294 25.4142C2.65286 25.0391 2.4 24.5304 2.4 24V4ZM21.1032 8H15.6C15.2817 8 14.9765 7.89464 14.7515 7.70711C14.5264 7.51957 14.4 7.26522 14.4 7V2.414L21.1032 8Z" fill="#2034E9"/>
</g>
</svg>
