<svg width="17" height="14" viewBox="0 0 17 14" xmlns="http://www.w3.org/2000/svg">
<path fill-rule="evenodd" clip-rule="evenodd" d="M1 0.5C0.723858 0.5 0.5 0.723858 0.5 1V9.66667C0.5 9.94281 0.723858 10.1667 1 10.1667H2.17359C1.958 10.5034 1.83301 10.9038 1.83301 11.3333C1.83301 12.5299 2.80306 13.5 3.99967 13.5C5.19629 13.5 6.16634 12.5299 6.16634 11.3333C6.16634 10.9038 6.04135 10.5034 5.82576 10.1667H10.8406C10.625 10.5034 10.5 10.9038 10.5 11.3333C10.5 12.5299 11.47 13.5 12.6667 13.5C13.8633 13.5 14.8333 12.5299 14.8333 11.3333C14.8333 10.9038 14.7084 10.5035 14.4928 10.1667H15.6667C15.9428 10.1667 16.1667 9.94285 16.1667 9.66671V6.33337C16.1667 6.20077 16.114 6.07359 16.0202 5.97982L14.0202 3.97982C13.9265 3.88605 13.7993 3.83337 13.6667 3.83337H11.5V1C11.5 0.723858 11.2761 0.5 11 0.5H1ZM11.5 4.83337V9.16671H12.6476L12.6667 9.16663L12.6857 9.16671H15.1667V6.54048L13.4596 4.83337H11.5ZM10.5 4.33337V1.5H1.5V9.16667H3.9862C3.99069 9.16664 3.99518 9.16663 3.99967 9.16663C4.00417 9.16663 4.00866 9.16664 4.01315 9.16667H10.5V4.33337ZM3.98979 10.1667H4.00956C4.64934 10.172 5.16634 10.6923 5.16634 11.3333C5.16634 11.9776 4.64401 12.5 3.99967 12.5C3.35534 12.5 2.83301 11.9776 2.83301 11.3333C2.83301 10.6923 3.35001 10.172 3.98979 10.1667ZM13.8333 11.3333C13.8333 10.6936 13.3185 10.1742 12.6806 10.1667H12.6527C12.0148 10.1742 11.5 10.6936 11.5 11.3333C11.5 11.9776 12.0223 12.5 12.6667 12.5C13.311 12.5 13.8333 11.9776 13.8333 11.3333Z"/>
</svg>
