<svg width="15" height="15" viewBox="0 0 15 15" fill="none" xmlns="http://www.w3.org/2000/svg">
<path fill-rule="evenodd" clip-rule="evenodd" d="M4.375 1.71875C3.25317 1.71875 2.34375 2.62817 2.34375 3.75V11.25C2.34375 12.3718 3.25317 13.2812 4.375 13.2812H7.5C7.75888 13.2812 7.96875 13.4911 7.96875 13.75C7.96875 14.0089 7.75888 14.2188 7.5 14.2188H4.375C2.7354 14.2188 1.40625 12.8896 1.40625 11.25V3.75C1.40625 2.1104 2.7354 0.78125 4.375 0.78125H8.16453C8.67462 0.78125 9.15836 1.00782 9.48491 1.39968L11.9454 4.35225C12.2028 4.66113 12.3438 5.05048 12.3438 5.45256V7.5C12.3438 7.75888 12.1339 7.96875 11.875 7.96875C11.6161 7.96875 11.4062 7.75888 11.4062 7.5V5.45256C11.4062 5.2698 11.3422 5.09282 11.2252 4.95242L8.7647 1.99986C8.61627 1.82174 8.39639 1.71875 8.16453 1.71875H4.375Z" fill="#1A599A"/>
<path fill-rule="evenodd" clip-rule="evenodd" d="M14.2188 11.875C14.2188 12.1339 14.0089 12.3438 13.75 12.3438H10C9.74112 12.3438 9.53125 12.1339 9.53125 11.875C9.53125 11.6161 9.74112 11.4062 10 11.4062H13.75C14.0089 11.4062 14.2188 11.6161 14.2188 11.875Z" fill="#1A599A"/>
<path fill-rule="evenodd" clip-rule="evenodd" d="M11.875 14.2187C11.6161 14.2187 11.4062 14.0089 11.4062 13.75L11.4062 10C11.4062 9.74112 11.6161 9.53125 11.875 9.53125C12.1339 9.53125 12.3437 9.74112 12.3437 10L12.3437 13.75C12.3437 14.0089 12.1339 14.2187 11.875 14.2187Z" fill="#1A599A"/>
<path fill-rule="evenodd" clip-rule="evenodd" d="M8.75 1.09375C9.00888 1.09375 9.21875 1.30362 9.21875 1.5625V3.75C9.21875 4.18147 9.56853 4.53125 10 4.53125H11.5625C11.8214 4.53125 12.0312 4.74112 12.0312 5C12.0312 5.25888 11.8214 5.46875 11.5625 5.46875H10C9.05076 5.46875 8.28125 4.69924 8.28125 3.75V1.5625C8.28125 1.30362 8.49112 1.09375 8.75 1.09375Z" fill="#1A599A"/>
</svg>
