<svg width="16" height="20" viewBox="0 0 16 20" fill="none" xmlns="http://www.w3.org/2000/svg">
<path d="M15.5 7.29161V18.1186C15.5008 18.2372 15.48 18.3547 15.4388 18.4646C15.3976 18.5744 15.3369 18.6744 15.2601 18.7588C15.1832 18.8433 15.0918 18.9105 14.991 18.9566C14.8902 19.0027 14.7819 19.0269 14.6725 19.0277H1.3275C1.10818 19.0277 0.897826 18.9334 0.742664 18.7655C0.587501 18.5976 0.500221 18.3698 0.5 18.1322V1.86772C0.5 1.38293 0.8725 0.972168 1.33167 0.972168H9.66667V6.38883C9.66667 6.62827 9.75447 6.85789 9.91074 7.02719C10.067 7.1965 10.279 7.29161 10.5 7.29161H15.5ZM15.5 5.48606H11.3333V0.974876L15.5 5.48606Z" fill="#2034E9"/>
</svg>
