<svg width="20" height="20" viewBox="0 0 20 20" fill="none" xmlns="http://www.w3.org/2000/svg">
<g clip-path="url(#clip0_499_4123)">
<path d="M20 7.5C20 6.83696 19.7366 6.20107 19.2678 5.73223C18.7989 5.26339 18.163 5 17.5 5H15.8333V0H4.16667V5H2.5C1.83696 5 1.20107 5.26339 0.732233 5.73223C0.263392 6.20107 0 6.83696 0 7.5L0 17.5H4.16667V20H15.8333V17.5H20V7.5ZM5.83333 1.66667H14.1667V5H5.83333V1.66667ZM14.1667 18.3333H5.83333V13.3333H14.1667V18.3333ZM18.3333 15.8333H15.8333V11.6667H4.16667V15.8333H1.66667V7.5C1.66667 7.27899 1.75446 7.06702 1.91074 6.91074C2.06702 6.75446 2.27899 6.66667 2.5 6.66667H17.5C17.721 6.66667 17.933 6.75446 18.0893 6.91074C18.2455 7.06702 18.3333 7.27899 18.3333 7.5V15.8333Z" fill="#2034E9"/>
<path d="M15.8333 8.33325H12.5V9.99992H15.8333V8.33325Z" fill="#2034E9"/>
</g>
<defs>
<clipPath id="clip0_499_4123">
<rect width="20" height="20" fill="white"/>
</clipPath>
</defs>
</svg>
