<svg width="15" height="16" viewBox="0 0 15 16" xmlns="http://www.w3.org/2000/svg">
<path fill-rule="evenodd" clip-rule="evenodd" d="M1.5 1.75C1.5 1.61193 1.61193 1.5 1.75 1.5H10.25C10.3881 1.5 10.5 1.61193 10.5 1.75V9.48645C10.5 9.90067 10.8358 10.2365 11.25 10.2365C11.6642 10.2365 12 9.90067 12 9.48645V1.75C12 0.783502 11.2165 0 10.25 0H1.75C0.7835 0 0 0.783502 0 1.75V13.25C0 14.2165 0.7835 15 1.75 15H4.92083C5.33504 15 5.67083 14.6642 5.67083 14.25C5.67083 13.8358 5.33504 13.5 4.92083 13.5H1.75C1.61193 13.5 1.5 13.3881 1.5 13.25V1.75ZM3.75 4C3.33579 4 3 4.33579 3 4.75C3 5.16421 3.33579 5.5 3.75 5.5H8.25C8.66421 5.5 9 5.16421 9 4.75C9 4.33579 8.66421 4 8.25 4H3.75ZM3 7.75C3 7.33579 3.33579 7 3.75 7H5.75C6.16421 7 6.5 7.33579 6.5 7.75C6.5 8.16421 6.16421 8.5 5.75 8.5H3.75C3.33579 8.5 3 8.16421 3 7.75ZM14.774 11.2866C15.0703 10.9972 15.076 10.5223 14.7866 10.226C14.4972 9.92965 14.0223 9.92402 13.726 10.2134L9.7003 14.1447L8.28127 12.7206C7.98889 12.4272 7.51402 12.4264 7.22061 12.7187C6.9272 13.0111 6.92636 13.486 7.21873 13.7794L9.1618 15.7294C9.4521 16.0207 9.9229 16.0239 10.2171 15.7366L14.774 11.2866Z"/>
</svg>
