<svg width="18" height="18" viewBox="0 0 18 18" fill="none" xmlns="http://www.w3.org/2000/svg">
<path fill-rule="evenodd" clip-rule="evenodd" d="M9.00008 17.3333C13.6025 17.3333 17.3334 13.6023 17.3334 8.99996C17.3334 4.39759 13.6025 0.666626 9.00008 0.666626C4.39771 0.666626 0.666748 4.39759 0.666748 8.99996C0.666748 13.6023 4.39771 17.3333 9.00008 17.3333Z" fill="#242830"/>
<path fill-rule="evenodd" clip-rule="evenodd" d="M9 6.5C9.46021 6.5 9.8335 6.12695 9.8335 5.66675C9.8335 5.20642 9.46021 4.83337 9 4.83337C8.53979 4.83337 8.16675 5.20642 8.16675 5.66675C8.16675 6.12695 8.53979 6.5 9 6.5ZM10 9C10 8.44775 9.55225 8 9 8C8.44775 8 8 8.44775 8 9V12.3334C8 12.8856 8.44775 13.3334 9 13.3334C9.55225 13.3334 10 12.8856 10 12.3334V9Z" fill="white"/>
</svg>
