<svg width="11" height="14" viewBox="0 0 11 14" xmlns="http://www.w3.org/2000/svg">
<path fill-rule="evenodd" clip-rule="evenodd" d="M7.33333 12C7.70152 12 8 12.2985 8 12.6667C8 13.0349 7.70152 13.3333 7.33333 13.3333H3.33333C2.96514 13.3333 2.66667 13.0349 2.66667 12.6667C2.66667 12.2985 2.96514 12 3.33333 12H7.33333ZM5.33311 0C8.47506 0 10.6667 1.89412 10.6667 4.91908C10.6667 6.15297 10.2109 7.17505 9.3421 8.29952L9.1845 8.49909C9.04504 8.67206 8.515 9.2943 8.33644 9.51441L8.23522 9.64488C8.09483 9.83323 8.02197 9.96292 8.00263 10.0312L7.98628 10.1348C7.92339 10.4409 7.65291 10.6667 7.33333 10.6667H3.33333C3.01376 10.6667 2.74328 10.4409 2.68039 10.1348L2.66403 10.0312C2.6447 9.96291 2.57183 9.8332 2.43144 9.64484L2.33022 9.51438L1.48215 8.49901L1.32457 8.29945C0.455829 7.17501 0 6.15296 0 4.91912C0 1.89419 2.19154 0 5.33311 0ZM5.33311 1.33333C2.88824 1.33333 1.33333 2.67727 1.33333 4.91912C1.33333 5.80022 1.67516 6.57032 2.37533 7.47857L2.52014 7.66213C2.63253 7.80153 3.093 8.34265 3.32074 8.61958L3.41839 8.74043C3.58641 8.95582 3.7177 9.14825 3.81292 9.33333H6.85375L6.91522 9.22128C7.00296 9.07037 7.11387 8.91275 7.24828 8.74045L7.62975 8.27928C7.84199 8.02657 8.07161 7.75511 8.14653 7.66219L8.29136 7.47862C8.99156 6.57036 9.33333 5.80026 9.33333 4.91912C9.33333 2.67722 7.77838 1.33333 5.33311 1.33333Z"/>
</svg>
