<svg width="24" height="24" viewBox="0 0 24 24" xmlns="http://www.w3.org/2000/svg">
<g clip-path="url(#clip0_114_6073)">
<path d="M14.5474 0.146032C14.5474 0.219049 15.3871 0.985715 16.4093 1.78889L18.3077 3.28571H15.1315H11.9918V4.92857V6.57143H8.12201C4.76328 6.57143 4.03312 6.68095 2.79185 7.3746C0.126767 8.87143 -0.749423 11.9746 0.710895 14.6032C1.91566 16.6841 3.66804 17.5238 7.06328 17.5238C9.65534 17.5238 9.9474 17.5968 10.9331 18.5825C11.8093 19.4587 11.9918 19.9698 11.9918 21.3206C11.9918 22.927 12.0284 23 13.0871 23C14.1458 23 14.1823 22.927 14.1823 21.3206C14.1823 19.1302 13.0506 17.1222 11.2617 16.1C10.203 15.5159 9.25375 15.3333 7.06328 15.3333C4.47121 15.3333 4.17915 15.2603 3.19343 14.2746C2.46328 13.5444 2.1347 12.8508 2.1347 12.0476C2.1347 11.2444 2.46328 10.5508 3.19343 9.82063C4.25217 8.79841 4.36169 8.7619 8.12201 8.7619H11.9918V10.4048V12.0476H18.0157H24.0395V7.66667V3.28571H22.7982C21.849 3.28571 21.0458 2.88413 19.549 1.64286C17.8696 0.292064 17.249 -5.36442e-07 16.0442 -5.36442e-07C15.2045 -5.36442e-07 14.5474 0.0730166 14.5474 0.146032ZM21.849 7.66667V9.85714H18.0157H14.1823V7.66667V5.47619H18.0157H21.849V7.66667Z"/>
</g>
<defs>
<clipPath id="clip0_114_6073">
<rect width="24" height="24" fill="white"/>
</clipPath>
</defs>
</svg>
