<svg width="17" height="18" viewBox="0 0 17 18" xmlns="http://www.w3.org/2000/svg">
<path fill-rule="evenodd" clip-rule="evenodd" d="M13.3573 5C13.3573 7.76147 11.119 10 8.35726 10C5.59554 10 3.35726 7.76147 3.35726 5C3.35726 2.23853 5.59554 0 8.35726 0C11.119 0 13.3573 2.23853 13.3573 5ZM16.617 15.218C16.8914 15.7119 16.5614 16.29 16.0096 16.405C10.9618 17.4568 5.75277 17.4568 0.705894 16.405C0.154136 16.29 -0.175942 15.7119 0.0984722 15.218C0.704917 14.1311 1.65902 13.175 2.87875 12.447C4.45101 11.5081 6.37679 11 8.35726 11C10.3377 11 12.2645 11.509 13.8368 12.447C15.0565 13.175 16.0106 14.1311 16.617 15.218Z"/>
</svg>
