<svg width="20" height="20" viewBox="0 0 20 20" xmlns="http://www.w3.org/2000/svg">
<path d="M11.4471 17.605C9.54939 17.6046 7.70642 16.9694 6.21158 15.8004L1.51173 20.5L-5.57979e-07 18.9883L4.69984 14.2888C3.53023 12.7938 2.89456 10.9505 2.8941 9.05249C2.8941 4.33686 6.73117 0.5 11.4471 0.5C16.1629 0.5 20 4.33686 20 9.05249C20 13.7681 16.1629 17.605 11.4471 17.605ZM11.4471 2.63812C7.90934 2.63812 5.03234 5.51497 5.03234 9.05249C5.03234 12.59 7.90934 15.4669 11.4471 15.4669C14.9848 15.4669 17.8618 12.59 17.8618 9.05249C17.8618 5.51497 14.9848 2.63812 11.4471 2.63812Z"/>
</svg>
