<svg width="16" height="14" viewBox="0 0 16 14" xmlns="http://www.w3.org/2000/svg">
<path fill-rule="evenodd" clip-rule="evenodd" d="M10.2763 1.58995C10.3238 1.53296 10.3942 1.5 10.4684 1.5H11.25C11.3881 1.5 11.5 1.61193 11.5 1.75V3.25V8.75V10.25C11.5 10.3881 11.3881 10.5 11.25 10.5H10.4684C10.3942 10.5 10.3238 10.467 10.2763 10.41L9.32617 9.2699C9.20442 9.1238 9.03173 9.0294 8.84303 9.0058L5.71899 8.6153C5.59388 8.5996 5.5 8.4933 5.5 8.36722V5.75V3.63278C5.5 3.5067 5.59388 3.40035 5.71899 3.38471L8.84303 2.99421C9.03173 2.97062 9.20442 2.87623 9.32617 2.73014L10.2763 1.58995ZM4 6.5V8.36722C4 9.2498 4.65719 9.9942 5.53294 10.1037L8.3633 10.4575L9.12399 11.3703C9.45648 11.7693 9.94901 12 10.4684 12H11.25C12.2165 12 13 11.2165 13 10.25V9.5H15.25C15.6642 9.5 16 9.1642 16 8.75C16 8.33579 15.6642 8 15.25 8H13V4H15.25C15.6642 4 16 3.66421 16 3.25C16 2.83579 15.6642 2.5 15.25 2.5H13V1.75C13 0.7835 12.2165 0 11.25 0H10.4684C9.94901 0 9.45648 0.23069 9.12399 0.62968L8.3633 1.5425L5.53294 1.8963C4.65719 2.00576 4 2.75022 4 3.63278V5H2.5C1.11929 5 0 6.11929 0 7.5V12.75C0 13.1642 0.335786 13.5 0.75 13.5C1.16421 13.5 1.5 13.1642 1.5 12.75V7.5C1.5 6.94772 1.94772 6.5 2.5 6.5H4Z"/>
</svg>
