<svg width="22" height="14" viewBox="0 0 22 14" fill="none" xmlns="http://www.w3.org/2000/svg">
<path d="M16.9942 5.82652C16.553 6.19531 16.5997 6.92783 17.0736 7.25351V7.25351C17.7161 7.6953 18.2983 8.20561 18.8257 8.77824C19.5288 9.5417 20.1058 10.3909 20.5593 11.3234C20.8461 11.9131 21.0731 12.5251 21.2528 13.1551C21.2666 13.2035 21.2619 13.2218 21.2039 13.2218C19.9905 13.2202 18.7769 13.2201 17.5634 13.2222C17.499 13.2224 17.4878 13.1889 17.4726 13.1423C17.2065 12.33 16.8252 11.5766 16.3033 10.8972C15.5112 9.86599 14.514 9.11773 13.2617 8.72523C12.9105 8.61517 12.551 8.54525 12.1861 8.5003C12.1429 8.49503 12.1298 8.50852 12.1335 8.54882C12.1354 8.56928 12.1338 8.59005 12.1338 8.61083C12.1338 10.1143 12.1338 11.618 12.1338 13.1215C12.1338 13.2205 12.1338 13.2202 12.033 13.2205C11.5482 13.2227 11.0635 13.2145 10.5801 13.1762C8.74681 13.0306 7.0179 12.5489 5.44412 11.5766C4.70289 11.1187 4.0351 10.5702 3.4395 9.93482C2.28254 8.70089 1.48453 7.25754 0.935296 5.66986C0.639209 4.81387 0.425585 3.9371 0.277464 3.04389C0.177109 2.43794 0.105382 1.82919 0.0594836 1.21688C0.0314776 0.843442 0.0190304 0.469389 0.000515313 0.0954906C-0.00306324 0.0235632 0.010473 -0.000154262 0.089668 7.54117e-07C1.24616 0.00294606 2.40266 0.00248101 3.559 0.000775834C3.61937 0.000620818 3.64162 0.00945673 3.64286 0.0782838C3.65251 0.615259 3.68783 1.15068 3.74726 1.68471C3.85431 2.64736 4.04428 3.59188 4.35515 4.51066C4.62556 5.30992 4.98171 6.06779 5.46154 6.7649C6.02011 7.5764 6.70346 8.25662 7.57398 8.73654C7.88687 8.90908 8.21532 9.04518 8.56119 9.13897C8.62981 9.15757 8.6449 9.14455 8.64459 9.07634C8.64257 8.52092 8.6435 7.96549 8.6435 7.41007C8.6435 4.97648 8.6435 2.54288 8.64365 0.109287C8.64365 -0.017361 8.63136 0.00263603 8.75054 0.00248101C9.84745 0.00186095 10.9442 0.00294606 12.0411 0.000465802C12.1147 0.000310786 12.1355 0.0161224 12.1354 0.0925453C12.1329 1.77431 12.1335 3.45624 12.1335 5.138C12.1335 5.23582 12.1332 5.23303 12.2328 5.21799C12.9791 5.10437 13.6233 4.76612 14.2117 4.31301C15.1162 3.61668 15.8023 2.73867 16.3413 1.74114C16.6311 1.20463 16.8613 0.643782 17.0254 0.0565816C17.0368 0.0159674 17.0537 0.00093085 17.099 0.00108587C18.2062 0.00263603 19.3133 0.00232599 20.4207 0.00248101V0.00248101C20.4548 0.00248101 20.4782 0.0378519 20.4711 0.0712269C19.9718 2.44276 18.7797 4.33426 16.9942 5.82652Z" fill="#FEFEFF"/>
</svg>
