<svg width="16" height="16" viewBox="0 0 16 16" fill="none" xmlns="http://www.w3.org/2000/svg">
<path fill-rule="evenodd" clip-rule="evenodd" d="M12.6667 0H15.3333C15.7013 0 16 0.298667 16 0.666667V3.33333C16 3.70133 15.7013 4 15.3333 4H12.6667C12.2987 4 12 3.70133 12 3.33333V0.666667C12 0.298667 12.2987 0 12.6667 0ZM15.3333 6H12.6667C12.2987 6 12 6.29867 12 6.66667V9.33333C12 9.70133 12.2987 10 12.6667 10H15.3333C15.7013 10 16 9.70133 16 9.33333V6.66667C16 6.29867 15.7013 6 15.3333 6ZM15.3333 12H12.6667C12.2987 12 12 12.2987 12 12.6667V15.3333C12 15.7013 12.2987 16 12.6667 16H15.3333C15.7013 16 16 15.7013 16 15.3333V12.6667C16 12.2987 15.7013 12 15.3333 12ZM9.33333 12H6.66667C6.29867 12 6 12.2987 6 12.6667V15.3333C6 15.7013 6.29867 16 6.66667 16H9.33333C9.70133 16 10 15.7013 10 15.3333V12.6667C10 12.2987 9.70133 12 9.33333 12ZM6.66667 6H9.33333C9.70133 6 10 6.29867 10 6.66667V9.33333C10 9.70133 9.70133 10 9.33333 10H6.66667C6.29867 10 6 9.70133 6 9.33333V6.66667C6 6.29867 6.29867 6 6.66667 6ZM9.33333 0H6.66667C6.29867 0 6 0.298667 6 0.666667V3.33333C6 3.70133 6.29867 4 6.66667 4H9.33333C9.70133 4 10 3.70133 10 3.33333V0.666667C10 0.298667 9.70133 0 9.33333 0ZM0.666667 12H3.33333C3.70133 12 4 12.2987 4 12.6667V15.3333C4 15.7013 3.70133 16 3.33333 16H0.666667C0.298667 16 0 15.7013 0 15.3333V12.6667C0 12.2987 0.298667 12 0.666667 12ZM3.33333 6H0.666667C0.298667 6 0 6.29867 0 6.66667V9.33333C0 9.70133 0.298667 10 0.666667 10H3.33333C3.70133 10 4 9.70133 4 9.33333V6.66667C4 6.29867 3.70133 6 3.33333 6ZM0.666667 0H3.33333C3.70133 0 4 0.298667 4 0.666667V3.33333C4 3.70133 3.70133 4 3.33333 4H0.666667C0.298667 4 0 3.70133 0 3.33333V0.666667C0 0.298667 0.298667 0 0.666667 0Z" fill="white"/>
</svg>
