<svg width="21" height="20" viewBox="0 0 21 20" fill="none" xmlns="http://www.w3.org/2000/svg">
<path fill-rule="evenodd" clip-rule="evenodd" d="M19.1609 0.0709075C19.3701 -0.0382596 19.6228 -0.0199262 19.8152 0.115908C20.0076 0.252575 20.1063 0.484243 20.072 0.717577L17.7713 16.1343C17.7437 16.3168 17.6358 16.4793 17.4768 16.576C17.3773 16.636 17.2643 16.6668 17.1506 16.6668C17.082 16.6668 17.0134 16.6551 16.9481 16.6335L8.17791 13.6476L16.8017 3.29842L5.6572 12.7901L0.424199 11.0085C0.187438 10.9276 0.0209525 10.7143 0.00171043 10.4643C-0.016695 10.2151 0.114653 9.97845 0.337192 9.86261L19.1609 0.0709075ZM7.32029 18.5418V14.6768L10.7228 15.8352L8.45306 18.9118C8.33258 19.0752 8.14351 19.1668 7.94774 19.1668C7.88249 19.1668 7.8164 19.1568 7.75198 19.136C7.4943 19.051 7.32029 18.8118 7.32029 18.5418Z" fill="white"/>
</svg>
