<svg width="14" height="9" viewBox="0 0 14 9" fill="none" xmlns="http://www.w3.org/2000/svg">
<path d="M13.7074 7.79303C13.5199 7.9805 13.2656 8.08582 13.0004 8.08582C12.7352 8.08582 12.4809 7.9805 12.2934 7.79303L7.70741 3.20703C7.51728 3.02454 7.26395 2.92264 7.00041 2.92264C6.73687 2.92264 6.48354 3.02454 6.29341 3.20703L1.70741 7.79303C1.5188 7.97519 1.2662 8.07598 1.00401 8.0737C0.741809 8.07142 0.490997 7.96626 0.305589 7.78085C0.120181 7.59544 0.0150115 7.34463 0.0127331 7.08243C0.0104547 6.82023 0.111249 6.56763 0.293408 6.37903L4.87841 1.79303C5.15699 1.5144 5.48773 1.29338 5.85174 1.14258C6.21575 0.991784 6.6059 0.91417 6.99991 0.91417C7.39392 0.91417 7.78407 0.991784 8.14808 1.14258C8.51208 1.29338 8.84283 1.5144 9.12141 1.79303L13.7074 6.37903C13.8949 6.56656 14.0002 6.82087 14.0002 7.08603C14.0002 7.35119 13.8949 7.6055 13.7074 7.79303V7.79303Z" fill="white"/>
</svg>
