<svg width="11" height="14" viewBox="0 0 11 14"  xmlns="http://www.w3.org/2000/svg">
<path d="M2.78667 2.3L1.6 1.7L2.44 0H8.08667L8.93333 1.7L7.74667 2.29333L7.26667 1.33333H3.26667L2.78667 2.3ZM9.68 4H6.66L6.13333 2H4.4L3.87333 4H0.853333L0 5.7L1.19333 6.29333L1.68 5.33333H8.85333L9.33333 6.3L10.5267 5.70667L9.68 4ZM9.11333 13.3333H7.73333L7.57333 12.7333L5.26667 9.26667L2.95333 12.7333L2.8 13.3333H1.42L3.34667 6H4.72667L4.48667 6.9L5.26667 8.06667L6.04 6.9L5.80667 6H7.18667L9.11333 13.3333ZM4.86667 8.66667L4.26667 7.76667L3.48 10.7533L4.86667 8.66667ZM7.05333 10.7467L6.26667 7.76L5.66667 8.66667L7.05333 10.7467Z"/>
</svg>
