<svg width="15" height="15" viewBox="0 0 15 15" fill="none" xmlns="http://www.w3.org/2000/svg">
<path fill-rule="evenodd" clip-rule="evenodd" d="M5 1.71875C3.87817 1.71875 2.96875 2.62817 2.96875 3.75V11.25C2.96875 12.3718 3.87817 13.2812 5 13.2812H10C11.1218 13.2812 12.0312 12.3718 12.0312 11.25V5.45256C12.0312 5.2698 11.9672 5.09282 11.8502 4.95242L9.3897 1.99986C9.24127 1.82174 9.02139 1.71875 8.78953 1.71875H5ZM2.03125 3.75C2.03125 2.1104 3.3604 0.78125 5 0.78125H8.78953C9.29962 0.78125 9.78336 1.00782 10.1099 1.39968L12.5704 4.35225C12.8278 4.66113 12.9688 5.05048 12.9688 5.45256V11.25C12.9688 12.8896 11.6396 14.2188 10 14.2188H5C3.3604 14.2188 2.03125 12.8896 2.03125 11.25V3.75Z" fill="#242424"/>
<path fill-rule="evenodd" clip-rule="evenodd" d="M9.375 1.09375C9.63388 1.09375 9.84375 1.30362 9.84375 1.5625V3.75C9.84375 4.18147 10.1935 4.53125 10.625 4.53125H12.1875C12.4464 4.53125 12.6562 4.74112 12.6562 5C12.6562 5.25888 12.4464 5.46875 12.1875 5.46875H10.625C9.67576 5.46875 8.90625 4.69924 8.90625 3.75V1.5625C8.90625 1.30362 9.11612 1.09375 9.375 1.09375Z" fill="#242424"/>
<path fill-rule="evenodd" clip-rule="evenodd" d="M4.53125 7.5C4.53125 7.24112 4.74112 7.03125 5 7.03125H10C10.2589 7.03125 10.4688 7.24112 10.4688 7.5C10.4688 7.75888 10.2589 7.96875 10 7.96875H5C4.74112 7.96875 4.53125 7.75888 4.53125 7.5Z" fill="#242424"/>
<path fill-rule="evenodd" clip-rule="evenodd" d="M4.53125 10.625C4.53125 10.3661 4.74112 10.1562 5 10.1562H7.5C7.75888 10.1562 7.96875 10.3661 7.96875 10.625C7.96875 10.8839 7.75888 11.0938 7.5 11.0938H5C4.74112 11.0938 4.53125 10.8839 4.53125 10.625Z" fill="#242424"/>
</svg>
