<svg width="24" height="24" viewBox="0 0 24 24" xmlns="http://www.w3.org/2000/svg">
<path fill-rule="evenodd" clip-rule="evenodd" d="M15.8415 2.24928C15.836 2.24949 15.8307 2.25161 15.8265 2.25528L4.92905 12.8558C4.87552 12.908 4.83881 12.975 4.82364 13.0482C4.80846 13.1214 4.81552 13.1975 4.84389 13.2666C4.87227 13.3358 4.92067 13.3949 4.98289 13.4364C5.0451 13.4778 5.11829 13.4997 5.19305 13.4993H10.125C10.3096 13.4993 10.4914 13.5448 10.6542 13.6316C10.8171 13.7185 10.9561 13.8441 11.0589 13.9973C11.1618 14.1506 11.2254 14.3268 11.244 14.5104C11.2627 14.694 11.2359 14.8795 11.166 15.0503L8.59655 21.3323L19.0695 11.1428C19.123 11.0907 19.1597 11.0238 19.1749 10.9508C19.1901 10.8777 19.1832 10.8017 19.155 10.7326C19.1268 10.6635 19.0786 10.6044 19.0166 10.5628C18.9547 10.5213 18.8817 10.4991 18.807 10.4993H13.875C13.6869 10.4993 13.5017 10.4521 13.3364 10.362C13.1712 10.2719 13.0312 10.1418 12.9293 9.98363C12.8273 9.82543 12.7667 9.64418 12.753 9.45649C12.7392 9.26879 12.7728 9.08065 12.8505 8.90928L15.8625 2.28228L15.867 2.27328C15.8662 2.26835 15.8641 2.26371 15.861 2.25978C15.8587 2.25617 15.8557 2.2531 15.852 2.25078L15.84 2.24928H15.8415ZM14.256 0.644282C14.636 0.275454 15.1328 0.0507883 15.6606 0.00903591C16.1885 -0.0327165 16.7144 0.111062 17.1476 0.415573C17.5808 0.720083 17.8942 1.16623 18.0337 1.67706C18.1731 2.1879 18.1299 2.73138 17.9115 3.21378L15.6225 8.24928H18.807C21.1621 8.24928 22.326 11.1128 20.6371 12.7553L9.62705 23.4683C9.27725 23.8086 8.80856 23.999 8.32055 23.9993H7.86755C7.55995 23.9993 7.25707 23.9236 6.98562 23.7789C6.71418 23.6342 6.4825 23.4249 6.31102 23.1695C6.13954 22.9142 6.03352 22.6205 6.0023 22.3145C5.97109 22.0085 6.01565 21.6995 6.13205 21.4148L8.44955 15.7493H5.19305C2.83805 15.7493 1.67405 12.8858 3.36305 11.2433L14.2545 0.642781L14.256 0.644282Z"/>
</svg>
